<?xml version="1.0" standalone="no"?>
<!DOCTYPE svg PUBLIC "-//W3C//DTD SVG 20010904//EN"
 "http://www.w3.org/TR/2001/REC-SVG-20010904/DTD/svg10.dtd">
<svg version="1.0" xmlns="http://www.w3.org/2000/svg"
 width="298.000000pt" height="169.000000pt" viewBox="0 0 298.000000 169.000000"
 preserveAspectRatio="xMidYMid meet">

<g transform="translate(0.000000,169.000000) scale(0.100000,-0.100000)"
fill="#000000" stroke="none">
<path d="M167 1679 c7 -7 24 -8 54 -1 l44 10 -54 1 c-40 1 -52 -2 -44 -10z"/>
<path d="M1030 1675 c0 -8 2 -15 4 -15 2 0 6 7 10 15 3 8 1 15 -4 15 -6 0 -10
-7 -10 -15z"/>
<path d="M1100 1686 c0 -8 85 -141 92 -144 9 -4 -16 -28 -67 -67 -22 -16 -46
-35 -53 -42 -19 -18 -38 -17 -23 1 10 12 8 13 -8 9 -12 -3 -21 -9 -21 -14 0
-5 -7 -9 -15 -9 -8 0 -15 -4 -15 -10 0 -5 -6 -10 -13 -10 -17 0 -106 -48 -130
-71 -12 -10 -27 -19 -34 -19 -7 0 -13 -5 -13 -10 0 -6 -10 -8 -24 -4 -18 4
-27 1 -35 -14 -11 -20 -4 -62 10 -62 5 0 9 -7 9 -16 0 -8 5 -12 10 -9 6 3 10
1 10 -5 0 -7 -17 -10 -47 -9 -30 2 -48 -1 -51 -9 -2 -7 1 -12 6 -12 14 0 24
-33 16 -54 -4 -11 -18 -16 -47 -16 l-40 0 23 -20 c21 -18 21 -20 5 -20 -14 0
-16 -3 -8 -11 6 -6 9 -18 5 -27 -4 -11 -1 -14 10 -9 9 3 24 -1 35 -8 17 -13
16 -14 -9 -16 -16 -1 -32 -3 -38 -4 -5 -1 -13 -3 -17 -4 -5 -2 1 -6 12 -10 11
-5 28 -4 38 1 22 11 37 2 37 -23 0 -19 5 -20 58 -14 31 3 71 8 89 11 25 4 34
0 43 -17 9 -16 9 -23 0 -29 -18 -11 -7 -45 15 -46 11 -1 26 -2 33 -3 24 -2 12
-22 -17 -27 -20 -4 -31 -14 -36 -31 -3 -13 -11 -23 -18 -20 -16 5 -21 65 -7
83 7 8 9 25 6 40 l-7 26 -99 -7 c-69 -4 -100 -3 -100 4 0 6 8 11 18 11 14 0
15 2 2 10 -12 8 -12 10 -1 10 8 0 12 2 10 4 -8 8 -122 -15 -141 -28 -11 -8
-29 -12 -41 -10 -12 2 -16 1 -9 -2 9 -4 7 -11 -9 -25 -14 -12 -19 -24 -14 -36
7 -17 8 -17 16 2 7 15 8 10 7 -20 -2 -46 9 -69 34 -71 10 -1 16 1 14 5 -2 3 2
12 10 19 8 7 14 8 14 2 0 -5 7 -10 15 -10 8 0 15 -4 15 -8 0 -5 15 -10 33 -11
17 -2 40 -3 50 -4 16 -1 17 -11 13 -107 -5 -126 5 -208 27 -225 14 -10 8 -14
-39 -25 -31 -8 -58 -19 -61 -26 -2 -7 -12 -13 -21 -13 -9 0 -39 -1 -65 -4 -26
-2 -50 0 -53 5 -3 4 15 8 40 8 25 0 46 5 46 10 0 10 -31 14 -84 10 -18 -1 -26
2 -22 9 4 6 0 11 -9 11 -15 0 -15 -3 3 -33 l19 -33 -31 4 c-17 3 -34 10 -38
16 -5 8 -8 7 -8 -1 0 -7 -9 -13 -20 -13 -11 0 -20 6 -20 14 0 11 11 14 40 12
44 -3 49 4 23 30 -17 16 -18 16 -21 1 -4 -22 -22 -22 -22 0 0 15 -2 15 -19 -1
-10 -10 -37 -18 -59 -19 -29 -1 -38 -5 -34 -15 2 -8 13 -11 23 -9 11 3 22 1
25 -4 3 -5 -9 -9 -25 -9 -18 0 -31 5 -31 13 0 8 -3 7 -9 -3 -12 -18 -4 -33 12
-23 7 4 6 0 -2 -10 -16 -20 -22 -22 -18 -5 1 7 -4 13 -10 14 -7 1 -16 2 -20 3
-4 0 1 7 10 14 15 11 14 12 -14 13 -17 1 -25 -2 -19 -6 19 -11 -62 -19 -84 -8
-13 7 -23 6 -34 -6 -15 -15 -14 -16 10 -16 14 0 28 -7 32 -15 3 -9 0 -15 -9
-15 -8 0 -15 5 -15 11 0 5 -5 7 -11 3 -15 -9 -30 17 -18 32 7 8 0 13 -22 18
-22 4 -29 10 -26 20 4 10 1 13 -9 9 -17 -6 -18 -15 -2 -31 9 -9 9 -12 0 -12
-7 0 -12 -7 -12 -15 0 -8 7 -15 15 -15 19 0 19 -16 0 -24 -12 -4 -15 -24 -15
-91 l0 -85 45 0 c25 0 45 -5 45 -10 0 -7 6 -7 19 0 11 5 29 10 41 10 17 0 20
4 15 20 -5 14 -2 20 10 20 12 0 15 -6 10 -20 -4 -11 -3 -19 2 -18 4 1 19 -4
32 -11 19 -11 22 -11 16 1 -6 10 -5 11 6 1 7 -7 21 -13 31 -13 10 0 18 6 18
13 0 7 7 4 15 -7 9 -12 15 -15 15 -7 0 11 3 11 17 0 11 -10 17 -10 20 -3 2 6
15 9 28 6 14 -2 25 0 25 5 0 18 -12 22 -37 12 -20 -7 -28 -6 -38 7 -8 11 -20
15 -34 11 -11 -3 -19 -1 -16 3 3 5 1 11 -4 14 -12 8 -9 30 4 33 6 1 9 -4 7
-11 -2 -14 21 -14 58 1 18 8 27 7 32 -1 6 -8 8 -8 8 0 0 14 38 25 45 14 3 -5
19 -5 36 0 25 7 29 7 20 -4 -9 -10 -8 -15 3 -19 8 -3 16 -2 18 3 3 11 27 13
118 7 36 -3 73 -1 83 5 11 6 17 5 17 -3 0 -7 11 -9 34 -5 36 7 58 -7 29 -18
-15 -6 -15 -8 -3 -16 23 -15 30 -12 30 10 0 15 7 20 29 20 17 0 33 -5 37 -11
3 -6 17 -8 30 -5 16 4 24 2 24 -6 0 -10 2 -10 8 0 11 16 62 12 62 -6 0 -7 -4
-10 -10 -7 -5 3 -10 1 -10 -4 0 -6 4 -11 9 -11 5 0 17 -3 27 -7 13 -5 16 -3
11 10 -4 11 -2 14 8 10 8 -3 12 -10 8 -16 -3 -5 -1 -7 4 -4 6 4 13 0 17 -8 8
-23 52 -15 53 10 2 18 1 18 -8 3 -6 -10 -16 -18 -24 -18 -10 0 -8 7 8 23 17
17 25 19 35 10 6 -6 12 -16 12 -22 0 -22 24 -22 41 0 10 13 19 18 19 11 0 -7
5 -10 10 -7 17 11 11 25 -11 25 -12 0 -23 -8 -26 -20 -3 -11 -10 -20 -15 -20
-6 0 -7 7 -4 16 3 9 6 20 6 25 0 5 26 9 58 8 43 -1 51 -3 32 -9 -25 -8 -24 -8
5 -9 21 -1 26 -4 16 -10 -9 -6 5 -8 38 -8 29 1 50 6 48 12 -2 5 -18 9 -35 9
-25 -1 -32 3 -32 17 0 11 3 19 8 20 4 0 16 2 27 4 l20 4 -20 -16 c-19 -15 -19
-15 8 -9 18 4 27 2 27 -6 0 -9 3 -9 12 0 16 16 37 15 72 -3 22 -12 32 -12 42
-4 11 9 14 8 14 -5 0 -17 12 -21 24 -9 13 14 44 12 50 -2 7 -20 26 -19 26 1 0
13 3 14 14 5 11 -9 15 -9 19 1 4 10 6 9 6 -1 1 -11 5 -10 17 5 15 19 16 19 10
-1 -6 -20 -6 -20 9 -1 8 11 15 14 15 8 0 -9 5 -10 19 -2 27 14 34 13 28 -4 -4
-10 5 -15 31 -19 51 -6 64 10 16 19 l-39 8 39 8 c32 7 43 5 55 -8 13 -14 14
-15 1 -8 -13 7 -13 5 -2 -8 8 -9 20 -14 28 -11 8 3 14 -1 14 -8 0 -11 2 -11 9
0 8 12 66 19 86 11 8 -4 24 -7 36 -9 6 0 3 -8 -5 -17 -22 -22 -20 -25 10 -14
36 14 44 13 44 -10 0 -11 6 -20 14 -20 11 0 14 14 13 60 -1 33 -5 60 -9 60 -3
0 -5 8 -4 17 2 10 -2 21 -8 25 -7 5 -5 8 5 8 11 0 18 -12 23 -39 3 -22 11 -52
16 -66 9 -24 12 -26 27 -14 12 10 15 10 9 2 -4 -7 -2 -13 3 -13 6 0 11 5 11
10 0 6 9 1 21 -11 11 -11 24 -18 27 -14 4 3 0 10 -8 15 -11 7 -11 10 -2 10 7
0 15 -6 18 -14 3 -9 20 -13 50 -12 25 1 50 -4 55 -10 6 -7 20 -11 32 -8 36 7
163 8 174 1 16 -10 23 3 24 42 0 20 3 29 6 21 3 -8 13 -23 22 -34 15 -17 16
-16 21 20 4 32 9 38 25 36 11 -1 46 -5 77 -9 32 -3 55 -10 52 -14 -3 -5 -1 -9
4 -9 5 0 12 11 14 25 5 23 2 25 -31 25 -20 0 -52 4 -71 10 -18 5 -36 6 -39 1
-15 -22 -68 -18 -130 11 -37 17 -72 27 -85 24 -12 -3 -27 -2 -34 3 -17 10 -4
41 14 34 8 -3 14 0 14 6 0 6 -6 11 -14 11 -26 0 -28 20 -8 83 64 195 94 310
87 335 -16 66 -17 88 -1 101 11 9 16 10 16 2 0 -8 6 -8 20 1 11 7 19 17 19 23
-3 28 5 38 46 56 24 11 47 24 50 29 3 6 27 10 52 10 44 0 45 1 30 18 -10 10
-17 23 -17 29 0 11 67 25 113 23 17 0 26 4 22 10 -3 5 -18 10 -32 10 -21 0
-24 2 -13 15 7 8 23 15 36 15 13 0 32 9 41 20 10 11 28 20 40 20 13 0 23 4 23
9 0 5 11 12 25 15 l25 6 0 225 c0 152 -3 225 -11 225 -5 0 -30 17 -55 37 -39
33 -44 42 -44 78 0 22 4 36 8 30 4 -5 21 -15 37 -21 17 -6 38 -15 48 -19 14
-6 17 -2 17 24 l0 31 -91 0 c-69 0 -88 -3 -83 -12 5 -7 21 -33 36 -57 29 -47
36 -99 16 -119 -16 -16 -28 -15 -28 3 0 14 -97 71 -106 62 -2 -2 9 -21 26 -43
40 -53 37 -60 -12 -24 -32 24 -51 30 -90 30 -26 0 -48 -4 -48 -10 0 -5 -13
-10 -29 -10 -44 0 -47 -17 -11 -69 l32 -46 -31 29 c-17 16 -34 39 -37 50 -9
26 -34 45 -51 39 -7 -3 -20 0 -28 7 -22 18 -86 4 -78 -17 4 -10 2 -14 -4 -10
-6 4 -14 1 -16 -5 -4 -10 -6 -10 -6 0 -2 24 20 54 35 48 8 -3 14 -1 14 3 0 5
8 7 18 4 10 -2 24 3 31 11 11 13 9 17 -14 26 -27 10 -30 34 -4 36 42 3 44 4
31 13 -11 7 -11 9 2 14 9 4 16 2 16 -4 0 -6 6 -9 13 -6 7 3 38 -10 67 -29 30
-19 70 -39 89 -44 105 -29 0 47 -143 104 -57 23 -74 25 -259 26 -196 1 -198 0
-187 -20 8 -14 8 -20 0 -20 -6 0 -4 -7 5 -16 22 -23 7 -36 -58 -50 -28 -6 -65
-14 -81 -19 -21 -6 -27 -5 -22 4 4 6 18 11 32 11 26 0 47 31 25 38 -7 2 -17
10 -24 17 -10 10 -19 7 -45 -17 -32 -27 -35 -28 -58 -14 -30 20 -48 20 -40 1
6 -17 -3 -19 -38 -5 -16 6 -27 6 -31 0 -9 -15 -23 -12 -21 5 1 8 24 26 52 41
27 14 53 30 58 35 6 5 -130 9 -347 9 -196 0 -357 -2 -357 -4z m1330 -40 c0 -3
-4 -8 -10 -11 -5 -3 -10 -1 -10 4 0 6 5 11 10 11 6 0 10 -2 10 -4z m-49 -83
c-12 -20 -14 -14 -5 12 4 9 9 14 11 11 3 -2 0 -13 -6 -23z m-527 -14 c3 1 6
-1 6 -4 0 -3 0 -10 0 -16 0 -5 -4 -8 -8 -5 -4 2 -14 1 -21 -4 -10 -5 -3 -10
20 -15 44 -8 89 -26 89 -34 0 -3 -17 -15 -37 -26 -20 -11 -40 -31 -45 -45 -7
-20 -7 -23 3 -12 19 18 22 16 44 -25 11 -21 25 -42 32 -46 18 -11 16 -27 -2
-27 -8 0 -15 5 -15 12 0 6 -3 8 -7 4 -5 -4 -8 -13 -8 -19 0 -7 -10 -13 -22
-15 -23 -3 -41 -41 -29 -60 8 -14 -53 -7 -67 7 -18 18 -37 13 -47 -14 -14 -37
7 -91 66 -166 59 -77 59 -77 109 -111 47 -33 50 -31 104 63 28 48 44 65 66 71
21 5 43 25 70 63 22 31 52 72 67 91 14 19 42 77 62 128 21 52 42 99 49 105 13
10 79 -33 171 -111 21 -18 48 -37 59 -41 37 -14 47 -27 37 -48 -31 -57 -224
-244 -242 -233 -6 4 -8 3 -4 -4 3 -6 -18 -31 -48 -56 -42 -36 -52 -51 -49 -69
3 -17 -8 -36 -46 -74 -28 -29 -51 -60 -51 -70 0 -24 -9 -35 -42 -52 -35 -18
-35 -26 1 -41 16 -6 45 -29 64 -51 35 -38 78 -52 92 -29 12 19 22 10 17 -15
-2 -14 0 -25 5 -25 6 0 10 -14 11 -30 0 -17 -4 -28 -9 -25 -5 4 -9 -1 -9 -9 0
-10 -9 -16 -22 -16 -41 -1 -114 -25 -132 -43 -10 -9 -28 -17 -40 -17 -21 0
-22 -4 -19 -48 2 -26 6 -64 9 -85 4 -20 2 -37 -3 -37 -5 0 -10 6 -11 13 0 6
-4 26 -8 42 -3 17 -7 40 -7 53 -1 12 -6 22 -11 22 -6 0 -4 5 4 10 12 8 12 10
1 10 -8 0 -11 3 -8 6 3 4 1 16 -4 27 -8 14 -8 22 1 27 8 5 5 9 -8 12 -11 3
-26 2 -33 -3 -12 -7 -11 -9 1 -9 13 0 13 -1 0 -10 -12 -8 -12 -10 -1 -10 11 0
11 -3 1 -15 -9 -10 -9 -15 -1 -15 17 0 13 -37 -5 -44 -9 -3 -27 3 -40 13 -13
10 -33 17 -43 14 -10 -3 -22 0 -26 7 -5 8 -10 8 -21 -1 -8 -6 -14 -7 -14 -2 0
5 -16 7 -36 5 -25 -3 -32 -7 -23 -13 9 -5 -9 -9 -48 -9 -34 0 -65 5 -68 10 -3
6 -11 10 -16 10 -6 0 -8 -4 -5 -8 3 -4 -11 -9 -30 -9 -19 -1 -34 0 -34 1 0 2
10 11 22 22 14 13 19 14 14 4 -4 -8 -1 -7 6 4 7 10 23 31 36 46 25 31 28 62 9
79 -11 8 -16 5 -25 -14 -6 -14 -16 -25 -22 -25 -6 0 -9 -4 -6 -9 4 -5 -2 -8
-11 -7 -15 2 -19 18 -25 107 -4 57 -9 115 -12 129 -4 24 -1 26 32 30 20 2 58
4 85 4 26 1 47 4 47 8 0 3 3 14 7 24 5 15 2 16 -30 11 -25 -4 -37 -2 -37 6 0
8 -3 7 -9 -2 -5 -7 -11 -9 -14 -4 -4 6 -27 9 -52 7 -26 -2 -45 1 -45 7 0 6 30
10 78 9 101 -2 102 -2 102 10 0 6 -20 10 -45 10 -38 0 -45 3 -45 20 0 11 -4
20 -9 20 -5 0 -7 -9 -4 -20 5 -18 2 -20 -33 -14 -49 7 -54 11 -54 33 0 26 53
23 62 -4 6 -20 6 -20 7 1 1 17 8 20 58 22 67 2 88 21 44 39 -36 15 -71 17
-181 8 -112 -9 -158 -7 -181 8 -27 17 -53 -2 -57 -41 -3 -26 1 -32 22 -38 16
-4 33 0 48 10 12 9 39 16 59 16 l37 0 7 -212 c9 -260 8 -274 -22 -271 -26 3
-50 -42 -53 -99 -3 -51 0 -56 14 -18 10 26 19 36 39 38 25 3 27 1 27 -37 0
-37 -2 -41 -25 -41 -14 0 -25 -4 -25 -10 0 -5 13 -7 29 -4 16 3 32 1 35 -5 8
-13 -9 -17 -141 -32 -56 -6 -106 -8 -112 -4 -21 12 0 25 41 25 l41 0 -7 188
c-4 103 -12 191 -17 197 -5 5 -9 7 -10 5 -2 -18 -8 -240 -9 -303 0 -74 -1 -77
-23 -77 l-24 0 -6 242 c-4 133 -7 307 -7 387 0 180 -8 254 -26 247 -7 -3 -15
0 -18 7 -2 7 -5 3 -5 -8 -1 -17 -3 -17 -11 -5 -7 11 -10 6 -10 -20 0 -33 -22
-114 -41 -152 -5 -10 -9 -23 -9 -30 0 -30 -44 -148 -55 -148 -8 0 -10 -9 -7
-25 3 -18 0 -25 -12 -25 -12 0 -16 8 -14 30 1 16 7 30 14 30 6 0 14 23 18 53
9 80 8 97 -9 97 -8 0 -15 8 -15 18 0 10 -9 25 -20 35 -11 9 -20 28 -20 41 0
45 -9 55 -41 46 -19 -6 -29 -5 -29 2 0 6 -8 17 -17 24 -17 12 -17 14 -1 41 22
38 13 69 -23 82 -39 13 -37 25 4 17 23 -4 28 -3 17 4 -12 8 -11 10 8 10 12 0
22 4 22 10 0 6 -18 7 -44 4 -24 -4 -52 -2 -62 4 -18 10 -17 11 6 21 14 5 63
26 110 45 46 20 86 36 88 36 6 0 -11 -75 -19 -84 -12 -13 -11 -26 2 -26 6 0
17 -7 25 -15 29 -28 44 -18 43 28 -1 23 2 62 6 85 6 39 10 43 29 38 11 -3 26
-6 32 -6 7 0 15 -16 19 -36 4 -23 13 -38 25 -41 15 -4 17 -12 13 -46 -7 -51
-13 -61 -13 -21 0 16 -4 35 -9 43 -12 18 -25 -40 -16 -69 5 -16 2 -20 -15 -20
-34 0 -18 -22 26 -35 38 -11 189 -10 244 1 21 5 23 7 10 17 -10 8 -15 31 -15
72 0 58 -1 60 -30 66 -16 4 -58 7 -92 8 l-63 1 0 36 c0 32 -2 35 -22 29 -22
-6 -22 -5 -4 9 10 8 15 19 11 25 -10 16 -25 13 -25 -5 0 -12 -6 -15 -22 -10
-13 3 -40 9 -60 12 -50 9 -48 20 3 22 29 1 38 -1 33 -11 -4 -6 1 -5 12 4 38
33 85 50 115 44 30 -7 72 12 95 43 6 8 17 13 25 10 17 -6 60 14 78 36 20 24
31 19 31 -11 0 -68 6 -73 82 -73 68 0 69 0 80 31 14 41 58 59 132 55 53 -3 56
-2 51 18 -5 15 -4 17 3 8 5 -8 12 -13 16 -13z m779 -71 c13 -13 38 -31 55 -40
18 -9 32 -22 32 -29 0 -8 -7 -6 -18 4 -39 35 -43 15 -6 -29 31 -38 33 -44 13
-33 -13 7 -28 12 -32 11 -5 -1 -6 2 -2 8 4 6 -5 20 -19 31 -26 20 -56 68 -56
89 0 15 6 13 33 -12z m112 -98 c3 -5 1 -10 -4 -10 -6 0 -11 5 -11 10 0 6 2 10
4 10 3 0 8 -4 11 -10z m-45 -50 c0 -5 -2 -10 -4 -10 -3 0 -8 5 -11 10 -3 6 -1
10 4 10 6 0 11 -4 11 -10z m-1406 -96 c24 -24 19 -30 -6 -8 -13 10 -25 20 -27
21 -2 2 1 3 7 3 6 0 18 -7 26 -16z m-257 -16 c-3 -8 -6 -5 -6 6 -1 11 2 17 5
13 3 -3 4 -12 1 -19z m887 -3 c11 -8 31 -12 45 -10 14 3 19 2 11 -1 -8 -4 -18
-12 -22 -17 -4 -6 -12 -4 -23 6 -9 10 -23 17 -31 17 -8 0 -14 5 -14 10 0 14
11 12 34 -5z m-645 -41 c10 -9 -45 -3 -59 6 -11 7 -5 8 20 4 19 -4 37 -8 39
-10z m69 9 c-10 -2 -26 -2 -35 0 -10 3 -2 5 17 5 19 0 27 -2 18 -5z m562 3 c0
-11 -19 -15 -25 -6 -3 5 1 10 9 10 9 0 16 -2 16 -4z m-675 -46 c3 -5 -3 -10
-15 -10 -12 0 -18 5 -15 10 3 6 10 10 15 10 5 0 12 -4 15 -10z m-474 -23 c-5
-13 -12 -49 -16 -80 -4 -32 -12 -60 -17 -63 -7 -4 -8 9 -4 37 3 24 7 56 9 71
3 24 23 58 33 58 2 0 0 -10 -5 -23z m1619 -252 c31 -16 59 -55 40 -55 -12 0
-89 69 -77 70 4 0 21 -7 37 -15z m-1663 -57 c-3 -8 -6 -5 -6 6 -1 11 2 17 5
13 3 -3 4 -12 1 -19z m313 12 c0 -5 -4 -10 -10 -10 -5 0 -10 5 -10 10 0 6 5
10 10 10 6 0 10 -4 10 -10z m-350 -40 c0 -5 -7 -10 -16 -10 -8 0 -12 5 -9 10
3 6 10 10 16 10 5 0 9 -4 9 -10z m1636 -168 c-18 -16 -18 -16 -6 6 6 13 14 21
18 18 3 -4 -2 -14 -12 -24z m-4 -64 c-7 -7 -12 -8 -12 -2 0 14 12 26 19 19 2
-3 -1 -11 -7 -17z m-668 -109 c-10 -11 -28 -25 -39 -31 -11 -5 -4 4 15 21 41
36 51 40 24 10z m-1297 -91 c-3 -8 -6 -5 -6 6 -1 11 2 17 5 13 3 -3 4 -12 1
-19z m-176 -51 c-10 -9 -11 -8 -5 6 3 10 9 15 12 12 3 -3 0 -11 -7 -18z m49 3
c0 -5 -7 -10 -16 -10 -8 0 -12 5 -9 10 3 6 10 10 16 10 5 0 9 -4 9 -10z m-110
-56 c0 -2 -9 -4 -21 -4 -11 0 -18 4 -14 10 5 8 35 3 35 -6z m-70 2 c0 -3 -4
-8 -10 -11 -5 -3 -10 -1 -10 4 0 6 5 11 10 11 6 0 10 -2 10 -4z m125 -6 c-3
-5 -12 -10 -18 -10 -7 0 -6 4 3 10 19 12 23 12 15 0z m85 -2 c0 -4 -7 -8 -15
-8 -8 0 -15 4 -15 8 0 5 7 9 15 9 8 0 15 -4 15 -9z m36 -25 c-4 -4 -12 -1 -19
7 -9 10 -9 11 1 6 7 -4 12 -2 13 6 0 11 2 11 6 0 3 -7 2 -16 -1 -19z m89 17
c3 -5 -1 -10 -10 -10 -9 0 -13 5 -10 10 3 6 8 10 10 10 2 0 7 -4 10 -10z
m-120 -52 c5 4 5 1 1 -6 -4 -7 -12 -10 -17 -7 -9 6 -13 -8 -10 -32 3 -24 -17
-13 -21 12 -3 14 -1 23 6 22 6 -1 10 4 8 12 -2 11 0 12 11 3 8 -7 18 -8 22 -4z
m-98 -4 c-3 -3 -12 -4 -19 -1 -8 3 -5 6 6 6 11 1 17 -2 13 -5z m918 -24 c-3
-5 -3 -15 1 -21 4 -8 9 -7 15 2 4 7 10 11 13 8 3 -2 1 -11 -4 -19 -7 -12 -12
-11 -30 5 -16 14 -17 20 -8 27 17 10 20 10 13 -2z m-925 -10 c0 -5 -5 -10 -11
-10 -5 0 -7 5 -4 10 3 6 8 10 11 10 2 0 4 -4 4 -10z m115 -11 c-10 -15 -25
-10 -19 6 4 8 10 12 15 9 5 -3 7 -10 4 -15z m1790 -27 c-3 -3 -11 0 -18 7 -9
10 -8 11 6 5 10 -3 15 -9 12 -12z"/>
<path d="M1740 1300 c-9 -6 -10 -10 -3 -10 6 0 15 5 18 10 8 12 4 12 -15 0z"/>
<path d="M1727 1273 c-4 -3 -7 -11 -7 -17 0 -6 5 -5 12 2 6 6 9 14 7 17 -3 3
-9 2 -12 -2z"/>
<path d="M1010 1180 c0 -5 5 -10 11 -10 5 0 7 5 4 10 -3 6 -8 10 -11 10 -2 0
-4 -4 -4 -10z"/>
<path d="M922 1175 c7 -7 161 -46 165 -42 4 5 -140 47 -158 47 -7 0 -10 -2 -7
-5z"/>
<path d="M1040 1170 c0 -5 4 -10 9 -10 6 0 13 5 16 10 3 6 -1 10 -9 10 -9 0
-16 -4 -16 -10z"/>
<path d="M2378 1173 c-10 -2 -18 -11 -18 -19 0 -12 4 -12 20 -4 11 6 20 15 20
20 0 6 -1 9 -2 9 -2 -1 -11 -3 -20 -6z"/>
<path d="M1463 1040 c-2 -102 4 -116 43 -105 16 4 50 9 77 12 62 6 61 23 -2
23 l-49 0 -7 53 c-10 70 -20 93 -42 99 -16 4 -18 -3 -20 -82z"/>
<path d="M945 1060 c-3 -5 -1 -10 4 -10 6 0 11 5 11 10 0 6 -2 10 -4 10 -3 0
-8 -4 -11 -10z"/>
<path d="M1540 1044 c0 -8 10 -14 25 -14 15 0 40 -7 57 -16 21 -11 33 -12 39
-5 5 6 6 9 2 6 -3 -3 -18 2 -32 11 -37 25 -91 35 -91 18z"/>
<path d="M1308 1023 c7 -3 16 -2 19 1 4 3 -2 6 -13 5 -11 0 -14 -3 -6 -6z"/>
<path d="M2289 984 c-6 -8 -20 -14 -31 -14 -22 0 -35 -27 -20 -42 8 -8 15 -6
27 6 9 9 14 16 10 16 -4 0 0 7 9 15 8 8 21 15 30 15 22 0 28 16 6 17 -10 1
-24 -5 -31 -13z"/>
<path d="M1303 983 c9 -2 23 -2 30 0 6 3 -1 5 -18 5 -16 0 -22 -2 -12 -5z"/>
<path d="M1666 978 c5 -8 2 -9 -9 -5 -10 3 -17 2 -17 -3 0 -11 15 -12 48 -3
18 4 20 8 10 14 -19 13 -40 11 -32 -3z"/>
<path d="M1030 965 c0 -5 5 -17 10 -25 5 -8 10 -10 10 -5 0 6 -5 17 -10 25 -5
8 -10 11 -10 5z"/>
<path d="M1825 924 l-30 -13 32 -1 c17 0 34 4 38 9 10 16 -9 19 -40 5z"/>
<path d="M1750 915 c0 -2 14 -10 30 -19 17 -8 30 -11 30 -6 0 4 -13 13 -30 19
-16 5 -30 8 -30 6z"/>
<path d="M1890 858 c0 -19 2 -20 10 -8 13 19 13 30 0 30 -5 0 -10 -10 -10 -22z"/>
<path d="M1665 841 c10 -9 75 -11 75 -2 0 5 -18 8 -40 8 -22 0 -37 -3 -35 -6z"/>
<path d="M1875 772 c-5 -4 -16 -17 -23 -30 -12 -21 -11 -22 6 -13 11 6 22 20
25 31 6 22 6 22 -8 12z"/>
<path d="M1979 668 c-1 -7 -1 -16 0 -20 0 -5 -2 -8 -6 -7 -5 1 -18 -2 -30 -6
-23 -7 -22 -26 4 -56 12 -15 10 -16 -19 -15 -18 0 -33 -3 -33 -9 0 -5 14 -9
32 -7 25 2 33 -2 39 -20 4 -13 7 -26 6 -30 -1 -5 3 -8 9 -8 5 0 7 -5 3 -11 -4
-7 -1 -10 7 -7 8 3 14 9 14 14 0 5 4 15 9 23 6 10 5 12 -2 7 -7 -4 -12 -3 -12
3 0 5 6 12 13 14 6 3 3 6 -8 6 -17 1 -17 3 -5 11 13 9 13 10 0 10 -13 0 -13 1
0 10 11 7 11 10 2 10 -7 0 -10 5 -7 10 3 6 1 10 -5 10 -6 0 -8 5 -5 10 3 6 1
10 -6 10 -7 0 -3 8 8 18 19 17 21 42 2 42 -5 0 -10 -6 -10 -12z"/>
<path d="M1416 587 c3 -10 9 -15 12 -12 3 3 0 11 -7 18 -10 9 -11 8 -5 -6z"/>
<path d="M1842 576 c7 -8 17 -12 22 -9 4 3 2 9 -5 14 -22 13 -31 11 -17 -5z"/>
<path d="M1402 475 c0 -16 2 -22 5 -12 2 9 2 23 0 30 -3 6 -5 -1 -5 -18z"/>
<path d="M1996 465 c-17 -13 -15 -14 15 -13 19 1 28 3 21 5 -6 3 -10 9 -6 14
8 13 -8 10 -30 -6z"/>
<path d="M1758 388 c5 -5 16 -8 23 -6 8 3 3 7 -10 11 -17 4 -21 3 -13 -5z"/>
<path d="M1330 295 c0 -8 7 -15 15 -15 9 0 12 6 9 15 -4 8 -10 15 -15 15 -5 0
-9 -7 -9 -15z"/>
<path d="M1390 220 c0 -5 5 -10 10 -10 6 0 10 5 10 10 0 6 -4 10 -10 10 -5 0
-10 -4 -10 -10z"/>
<path d="M2522 1681 c-13 -8 86 -60 128 -68 14 -2 36 -11 48 -19 27 -18 46 -8
20 9 -74 51 -99 70 -94 74 6 6 66 -29 66 -38 0 -9 106 -59 125 -59 22 0 18 21
-12 68 l-27 42 -121 -1 c-67 0 -126 -4 -133 -8z"/>
<path d="M45 1659 c-11 -16 1 -22 30 -15 14 4 23 11 20 16 -8 13 -42 13 -50
-1z"/>
<path d="M308 1603 c12 -2 32 -2 45 0 12 2 2 4 -23 4 -25 0 -35 -2 -22 -4z"/>
<path d="M648 1603 c6 -2 18 -2 25 0 6 3 1 5 -13 5 -14 0 -19 -2 -12 -5z"/>
<path d="M648 1583 c7 -3 16 -2 19 1 4 3 -2 6 -13 5 -11 0 -14 -3 -6 -6z"/>
<path d="M755 1570 c13 -15 31 -20 67 -20 46 0 48 1 38 20 -9 16 -21 20 -67
20 -55 0 -56 0 -38 -20z"/>
<path d="M578 1053 c12 -2 20 -9 17 -14 -4 -5 -2 -9 3 -9 6 0 12 7 16 15 4 12
-2 15 -27 14 -24 -1 -26 -3 -9 -6z"/>
<path d="M558 1023 c7 -3 16 -2 19 1 4 3 -2 6 -13 5 -11 0 -14 -3 -6 -6z"/>
<path d="M2546 727 c3 -10 9 -15 12 -12 3 3 0 11 -7 18 -10 9 -11 8 -5 -6z"/>
<path d="M2958 673 c7 -3 16 -2 19 1 4 3 -2 6 -13 5 -11 0 -14 -3 -6 -6z"/>
<path d="M560 399 c0 -5 5 -7 10 -4 6 3 10 8 10 11 0 2 -4 4 -10 4 -5 0 -10
-5 -10 -11z"/>
<path d="M591 384 c0 -11 3 -14 6 -6 3 7 2 16 -1 19 -3 4 -6 -2 -5 -13z"/>
<path d="M2723 193 c15 -2 39 -2 55 0 15 2 2 4 -28 4 -30 0 -43 -2 -27 -4z"/>
<path d="M2960 165 c-10 -12 -10 -15 4 -15 9 0 16 7 16 15 0 8 -2 15 -4 15 -2
0 -9 -7 -16 -15z"/>
<path d="M714 149 c-2 -4 -20 -7 -39 -5 -19 1 -35 -1 -35 -6 0 -4 -9 -8 -20
-8 -27 0 -25 -18 3 -22 15 -2 22 -10 21 -25 0 -18 3 -20 18 -12 10 5 18 12 18
15 0 3 -4 2 -10 -1 -5 -3 -10 -1 -10 4 0 6 0 14 0 19 0 7 17 11 74 16 17 2 32
8 33 13 5 13 -45 24 -53 12z"/>
<path d="M525 130 c-3 -5 -1 -10 4 -10 6 0 11 5 11 10 0 6 -2 10 -4 10 -3 0
-8 -4 -11 -10z"/>
<path d="M956 133 c-11 -11 -6 -23 9 -23 8 0 15 4 15 9 0 13 -16 22 -24 14z"/>
<path d="M1390 124 c0 -8 5 -12 10 -9 6 3 10 1 10 -4 0 -6 -6 -11 -14 -11 -18
0 -30 -17 -13 -17 7 0 18 -2 26 -4 17 -5 23 43 7 53 -17 12 -26 9 -26 -8z"/>
<path d="M450 115 c0 -8 -8 -15 -17 -16 -13 0 -11 -3 6 -10 13 -5 26 -7 29 -4
3 3 -1 5 -9 5 -10 1 -9 4 4 14 15 12 16 14 2 20 -9 3 -15 0 -15 -9z"/>
<path d="M863 123 c-23 -4 -30 -17 -14 -27 4 -3 16 3 26 14 10 11 16 19 14 19
-2 -1 -14 -4 -26 -6z"/>
<path d="M912 110 c-13 -21 -6 -25 18 -10 10 6 12 12 5 19 -7 7 -14 4 -23 -9z"/>
<path d="M2883 115 c0 -7 8 -10 19 -7 10 2 18 6 18 7 0 1 -8 5 -18 7 -11 3
-19 0 -19 -7z"/>
<path d="M490 112 c0 -10 41 -24 49 -17 6 7 0 11 -26 19 -13 4 -23 3 -23 -2z"/>
<path d="M568 103 c7 -3 16 -2 19 1 4 3 -2 6 -13 5 -11 0 -14 -3 -6 -6z"/>
<path d="M126 89 c-15 -9 -16 -13 -5 -20 19 -12 39 -11 39 2 0 6 -7 8 -16 5
-14 -5 -15 -4 -4 9 15 18 12 18 -14 4z"/>
<path d="M1238 93 c7 -3 16 -2 19 1 4 3 -2 6 -13 5 -11 0 -14 -3 -6 -6z"/>
<path d="M1988 92 c-10 -4 -14 -12 -10 -19 6 -9 11 -7 20 7 7 11 11 20 10 19
-2 0 -11 -3 -20 -7z"/>
<path d="M2710 91 c-8 -6 -18 -7 -22 -5 -4 3 -16 0 -25 -5 -15 -9 -13 -10 13
-11 17 0 37 7 44 15 14 17 11 19 -10 6z"/>
<path d="M20 79 c0 -5 -5 -7 -11 -3 -7 4 -10 -1 -7 -12 3 -15 10 -18 33 -16
34 4 60 22 31 22 -9 0 -14 5 -11 10 3 6 -3 10 -14 10 -12 0 -21 -5 -21 -11z"/>
<path d="M581 74 c0 -11 3 -14 6 -6 3 7 2 16 -1 19 -3 4 -6 -2 -5 -13z"/>
<path d="M860 82 c-8 -4 -16 -14 -18 -22 -3 -11 3 -9 20 5 13 11 25 21 27 22
9 6 -15 1 -29 -5z"/>
<path d="M1341 74 c0 -11 3 -14 6 -6 3 7 2 16 -1 19 -3 4 -6 -2 -5 -13z"/>
<path d="M1630 83 c0 -5 12 -9 27 -10 19 -1 22 1 12 8 -17 11 -39 12 -39 2z"/>
<path d="M520 72 c0 -5 7 -9 15 -9 8 0 12 4 9 9 -3 4 -9 8 -15 8 -5 0 -9 -4
-9 -8z"/>
<path d="M600 72 c0 -5 7 -9 15 -9 8 0 15 4 15 9 0 4 -7 8 -15 8 -8 0 -15 -4
-15 -8z"/>
<path d="M685 69 c-4 -6 -5 -12 -2 -15 2 -3 7 2 10 11 7 17 1 20 -8 4z"/>
<path d="M1045 70 c-3 -5 1 -10 10 -10 9 0 13 5 10 10 -3 6 -8 10 -10 10 -2 0
-7 -4 -10 -10z"/>
<path d="M1220 70 c0 -5 4 -10 9 -10 6 0 13 5 16 10 3 6 -1 10 -9 10 -9 0 -16
-4 -16 -10z"/>
<path d="M1740 76 c0 -2 7 -7 16 -10 8 -3 12 -2 9 4 -6 10 -25 14 -25 6z"/>
<path d="M1900 64 c0 -8 5 -12 10 -9 6 3 10 10 10 16 0 5 -4 9 -10 9 -5 0 -10
-7 -10 -16z"/>
<path d="M266 53 c10 -7 26 -13 35 -13 10 0 21 -4 24 -10 3 -5 12 -10 18 -10
7 0 3 8 -8 16 -11 8 -19 19 -18 24 1 4 -14 8 -33 7 -32 -1 -34 -2 -18 -14z"/>
<path d="M906 54 c-9 -24 -7 -29 6 -16 7 7 20 12 30 12 10 0 18 5 18 10 0 16
-47 11 -54 -6z"/>
<path d="M385 30 c-3 -5 -2 -10 4 -10 5 0 13 5 16 10 3 6 2 10 -4 10 -5 0 -13
-4 -16 -10z"/>
<path d="M300 20 c0 -5 5 -10 10 -10 6 0 10 5 10 10 0 6 -4 10 -10 10 -5 0
-10 -4 -10 -10z"/>
<path d="M1095 10 c3 -5 8 -10 11 -10 2 0 4 5 4 10 0 6 -5 10 -11 10 -5 0 -7
-4 -4 -10z"/>
<path d="M878 3 c6 -2 18 -2 25 0 6 3 1 5 -13 5 -14 0 -19 -2 -12 -5z"/>
<path d="M1128 3 c7 -3 16 -2 19 1 4 3 -2 6 -13 5 -11 0 -14 -3 -6 -6z"/>
</g>
</svg>
