<?xml version="1.0" standalone="no"?>
<!DOCTYPE svg PUBLIC "-//W3C//DTD SVG 20010904//EN"
 "http://www.w3.org/TR/2001/REC-SVG-20010904/DTD/svg10.dtd">
<svg version="1.0" xmlns="http://www.w3.org/2000/svg"
 width="512.000000pt" height="340.000000pt" viewBox="0 0 512.000000 340.000000"
 preserveAspectRatio="xMidYMid meet">

<g transform="translate(0.000000,340.000000) scale(0.100000,-0.100000)"
fill="#000000" stroke="none">
<path d="M998 3393 c-15 -4 -18 -16 -18 -74 0 -64 3 -74 32 -110 27 -34 30
-42 20 -63 -6 -14 -25 -32 -42 -41 -16 -8 -30 -19 -30 -24 0 -4 -18 -14 -40
-21 -22 -7 -45 -19 -51 -27 -6 -7 -16 -13 -21 -13 -17 0 -251 -143 -298 -182
-52 -43 -191 -110 -402 -194 -138 -54 -148 -60 -148 -85 0 -30 25 -35 53 -11
15 13 20 14 27 3 6 -10 9 -9 15 8 6 20 16 25 43 22 17 -3 43 19 37 29 -3 4 2
11 11 14 12 4 15 2 10 -9 -8 -22 9 -19 53 10 27 16 41 20 44 12 2 -7 15 -2 36
16 18 15 39 27 47 27 8 0 14 4 14 8 0 12 61 55 77 55 7 0 13 6 13 14 0 7 5 13
10 13 6 0 12 0 15 0 3 0 14 9 25 20 12 12 26 18 32 14 8 -5 9 -2 5 9 -4 11 -1
17 8 17 8 0 15 3 15 8 0 4 17 16 38 27 39 21 184 115 192 126 6 8 68 35 100
45 14 4 43 19 65 34 22 15 48 30 58 33 10 4 16 11 12 16 -3 5 0 13 6 17 8 4 9
3 5 -4 -4 -7 -2 -12 3 -12 10 0 15 14 12 33 -1 5 3 6 8 3 5 -4 11 -2 13 3 1 6
37 26 78 46 59 28 68 35 42 32 -32 -4 -33 -3 -15 15 11 10 39 20 68 23 28 2
41 2 31 -1 -19 -6 -46 -28 -46 -38 0 -2 31 6 70 20 48 16 91 24 139 24 38 0
82 5 97 10 31 12 73 -9 81 -41 4 -12 11 -18 22 -15 55 17 106 24 109 16 4 -12
36 -13 82 -4 20 4 36 16 42 30 9 20 19 24 55 24 24 0 52 -5 63 -12 14 -9 24
-9 42 0 13 6 41 13 63 14 28 2 40 8 40 18 0 10 18 19 50 27 28 7 60 15 73 18
17 4 22 1 22 -14 0 -24 29 -35 85 -32 87 5 96 3 116 -18 11 -11 28 -21 39 -21
17 0 19 -10 22 -117 2 -65 0 -123 -4 -129 -4 -6 -10 -27 -12 -47 -5 -35 -3
-37 32 -47 20 -5 53 -10 73 -10 40 0 58 -22 39 -45 -7 -8 -7 -15 -1 -19 5 -3
12 0 14 6 3 8 6 5 6 -6 1 -10 9 -25 19 -32 15 -11 18 -9 29 19 l11 32 1 -36
c1 -19 -5 -44 -13 -54 -12 -16 -16 -17 -29 -6 -14 11 -15 9 -7 -17 6 -22 4
-36 -6 -49 -12 -16 -13 -11 -14 42 -1 43 -4 54 -10 40 -12 -28 -12 -125 0
-125 6 0 10 5 10 10 0 6 5 10 10 10 6 0 10 -14 10 -32 l0 -32 21 20 c18 18 19
24 8 42 -10 16 -10 26 3 51 l15 31 11 -24 c14 -32 -1 -82 -34 -113 -15 -14
-24 -33 -24 -52 0 -31 14 -49 24 -32 4 5 2 12 -4 16 -5 3 -10 11 -10 17 0 6 9
3 20 -7 19 -17 21 -17 40 0 23 21 27 83 8 118 -10 20 -10 21 6 8 16 -14 18
-11 16 40 -2 75 0 88 9 64 4 -11 7 -66 6 -123 l-1 -103 -35 -17 c-26 -13 -34
-23 -32 -42 1 -16 0 -18 -3 -7 -5 15 -12 17 -37 12 -23 -4 -28 -3 -17 4 8 5
12 11 10 13 -3 2 -21 16 -40 30 -20 14 -60 30 -90 36 -30 5 -45 10 -32 11 36
2 25 21 -13 21 -47 0 -46 -25 1 -40 19 -7 38 -19 41 -27 3 -8 12 -12 20 -8 9
3 32 -5 52 -17 l36 -23 -45 -6 -45 -6 51 -1 c47 -2 54 -5 80 -39 51 -68 66
-104 54 -138 -9 -26 -8 -32 10 -44 14 -10 20 -24 20 -52 0 -35 3 -39 25 -39
25 0 33 14 15 25 -6 4 -6 15 0 31 6 14 11 73 12 132 l1 107 7 -85 c4 -47 5
-95 3 -107 -6 -26 12 -31 21 -7 4 10 4 56 0 103 l-7 86 33 10 c50 15 73 64 66
140 -3 33 -9 101 -13 150 -6 71 -9 83 -14 55 -5 -26 -7 -15 -9 45 -1 44 -1 91
0 104 1 13 -2 26 -8 30 -5 3 -6 31 -2 66 8 66 6 75 -16 75 -15 0 -44 23 -44
34 0 3 7 6 15 6 8 0 15 -7 15 -15 0 -8 5 -15 10 -15 6 0 10 6 9 13 -5 39 1 47
36 47 34 0 35 -1 35 -40 0 -33 -3 -40 -20 -40 -24 0 -25 -6 -5 -26 20 -21 18
-104 -3 -104 -10 0 -12 -5 -6 -17 4 -10 10 -63 14 -118 4 -60 7 -80 9 -50 1
46 3 49 16 31 12 -16 15 -60 15 -227 0 -198 -1 -207 -20 -212 -15 -4 -20 -14
-20 -40 0 -20 5 -39 10 -42 16 -10 1 -25 -25 -25 -30 0 -53 -36 -34 -54 9 -8
10 -8 5 2 -5 8 3 12 27 12 26 0 36 5 40 19 3 14 11 18 26 14 20 -5 21 -12 21
-114 0 -102 -1 -109 -20 -109 -13 0 -20 7 -20 19 0 14 -10 21 -32 26 -18 4
-36 12 -40 18 -3 6 -9 -7 -13 -29 -3 -21 -10 -49 -15 -61 -7 -18 -6 -23 4 -23
26 0 58 -52 52 -84 l-6 -29 77 7 c43 4 82 11 88 16 12 10 75 9 69 -1 -5 -8 42
-29 66 -29 10 0 22 -5 26 -12 4 -7 13 1 23 20 9 18 72 111 140 207 100 142
129 175 148 175 20 0 23 -5 24 -37 1 -21 3 -51 4 -68 2 -16 5 -60 6 -98 2 -41
6 -64 12 -58 21 21 38 0 31 -38 -5 -25 -3 -33 4 -26 6 6 12 35 14 65 3 54 3
55 17 28 32 -62 70 -15 73 87 1 48 3 57 5 28 2 -24 8 -43 13 -43 6 0 9 -10 7
-22 -2 -19 4 -24 31 -26 26 -3 32 -8 32 -27 0 -19 7 -25 34 -30 38 -8 60 -45
26 -45 -15 0 -19 -10 -22 -52 -2 -29 -2 -57 2 -63 3 -5 12 -23 19 -39 10 -25
10 -28 -2 -18 -17 15 -17 14 -20 -153 l-3 -130 -63 -190 c-92 -279 -108 -321
-152 -408 -86 -171 -154 -244 -269 -288 -122 -48 -300 -33 -439 37 -133 66
-253 230 -296 404 -2 8 -9 31 -14 50 -11 34 -14 87 -4 63 2 -7 10 -13 17 -13
7 0 42 -15 77 -33 l64 -32 145 2 c86 2 146 7 148 13 2 5 12 10 23 10 10 0 19
6 19 13 0 6 9 1 19 -12 17 -23 19 -23 44 -6 24 16 27 16 33 1 9 -23 31 -20 50
8 13 20 20 23 39 16 13 -5 26 -6 29 -3 10 10 7 83 -4 83 -5 0 -10 7 -10 15 0
11 12 15 43 17 36 1 37 2 10 5 l-33 4 41 39 c37 35 40 42 34 72 -4 18 -14 44
-22 56 -14 23 -17 24 -136 18 -67 -3 -134 -5 -148 -6 -25 0 -25 -1 -19 -50 8
-62 -6 -88 -37 -71 -17 9 -22 22 -25 71 -3 55 -1 61 18 66 12 3 28 4 35 3 8
-2 24 1 37 5 17 6 22 15 22 41 0 20 -6 35 -15 39 -20 7 -19 53 1 64 12 7 14
14 6 28 -10 18 -6 19 91 16 56 -1 118 -7 138 -13 25 -8 46 -8 75 0 21 6 63 11
93 11 69 0 61 10 -10 13 -48 2 -54 5 -57 25 -3 21 -7 22 -115 23 -62 0 -202 4
-312 8 -190 7 -201 7 -217 -12 -10 -11 -18 -28 -18 -38 0 -10 -5 -19 -11 -19
-6 0 -9 -5 -7 -12 2 -6 -5 -21 -16 -32 l-21 -21 28 -3 c26 -3 40 -32 15 -32
-7 0 -5 -5 4 -12 9 -7 18 -22 20 -33 3 -18 -3 -20 -49 -23 -45 -3 -53 0 -53
15 -1 15 -4 14 -23 -7 -12 -14 -40 -38 -60 -54 -21 -15 -51 -46 -67 -68 -32
-44 -33 -57 -4 -173 55 -221 132 -382 236 -488 32 -32 58 -55 58 -51 0 5 4 4
8 -2 9 -14 131 -77 149 -77 7 0 13 -4 13 -8 0 -4 9 -6 20 -4 11 2 20 -1 20 -6
0 -6 5 -7 10 -4 6 3 10 1 10 -5 0 -8 -9 -10 -27 -5 -16 4 -35 8 -44 10 -28 6
-145 62 -169 81 -54 44 -107 102 -130 139 -13 22 -29 45 -35 52 -30 36 -35 43
-31 43 3 0 -8 29 -24 64 -15 35 -26 67 -23 70 4 3 2 6 -4 6 -5 0 -10 6 -10 13
0 6 -10 46 -21 87 -12 41 -24 91 -27 110 -12 73 -13 73 -64 12 -45 -54 -75
-105 -116 -197 -10 -22 -25 -54 -34 -72 -24 -51 -8 -47 19 5 14 26 32 52 40
59 8 7 12 13 8 13 -9 0 11 44 47 102 l29 47 42 -127 c72 -223 158 -367 271
-457 80 -64 220 -125 326 -143 55 -9 203 -8 246 1 50 11 181 67 181 78 0 5 5
9 11 9 31 0 194 154 182 173 -3 5 -1 7 4 4 14 -9 37 19 27 34 -4 8 -3 9 4 5 7
-4 12 -2 12 4 0 6 7 18 16 27 8 9 13 22 10 29 -3 8 -2 13 2 13 19 -3 25 2 12
11 -13 8 -12 10 3 10 10 0 15 5 12 10 -3 6 -2 10 3 10 10 0 35 50 28 57 -3 3
2 12 10 20 8 9 13 20 11 27 -2 6 3 17 10 25 8 7 12 20 9 27 -3 8 -1 14 4 14
11 0 42 99 34 111 -3 5 0 9 6 9 7 0 9 7 6 16 -3 8 -2 13 3 10 11 -7 23 52 14
67 -3 5 -1 7 4 4 15 -9 23 29 9 43 -8 8 -7 10 4 5 10 -3 16 1 18 12 2 18 9 54
12 63 1 3 2 18 2 33 1 16 7 31 14 34 8 3 11 9 8 14 -3 5 -1 9 4 9 13 0 10 33
-3 42 -6 4 -2 8 8 8 9 0 17 5 17 11 0 5 -4 8 -9 4 -5 -3 -13 -1 -16 5 -4 6
-16 8 -27 5 -14 -5 -21 -1 -25 14 -3 12 -10 21 -17 22 -6 1 0 5 14 9 23 7 23
8 -10 10 l-35 2 30 8 c17 4 22 8 13 9 -10 0 -18 5 -18 9 0 5 14 6 32 4 l31 -5
-21 24 c-26 27 -23 45 4 42 10 -2 35 0 55 3 l36 5 6 62 c3 34 10 63 16 65 6 2
11 28 11 58 0 47 -2 54 -20 54 -24 0 -24 0 -5 36 8 16 15 39 15 52 0 13 15 35
37 55 62 55 88 143 62 217 -7 21 -8 20 -5 -11 3 -31 1 -36 -15 -32 -11 3 -19
14 -19 25 0 11 -5 28 -10 39 -8 14 -7 19 2 19 10 0 9 3 -1 9 -8 5 -20 7 -28 4
-15 -6 -18 -30 -3 -35 6 -2 2 -8 -9 -15 -15 -10 -20 -9 -25 2 -3 10 0 12 12 9
15 -5 15 -4 -1 9 -11 9 -18 29 -19 49 0 52 -6 65 -38 78 -35 14 -38 26 -10 35
11 3 20 11 20 16 0 6 4 8 9 5 5 -4 8 -17 6 -31 -2 -18 2 -25 16 -25 26 0 33
19 15 39 -9 10 -16 25 -16 34 0 8 -8 18 -17 20 -15 4 -15 5 2 6 11 1 25 12 31
26 10 20 9 25 -5 28 -14 4 -14 5 2 6 21 1 22 14 3 30 -11 10 -20 10 -37 1 -17
-10 -19 -14 -8 -21 11 -7 10 -9 -3 -9 -10 0 -18 -4 -18 -10 0 -5 7 -10 15 -10
8 0 15 -7 15 -15 0 -8 -8 -15 -19 -15 -10 0 -21 -9 -24 -20 -3 -11 -9 -20 -14
-20 -11 0 -35 83 -35 120 0 14 -4 30 -10 37 -5 7 -7 21 -3 33 4 12 1 28 -7 37
-11 14 -11 16 1 8 11 -6 13 -3 9 13 -4 15 0 25 10 32 17 9 12 10 -65 14 -28 1
-36 82 -12 123 16 29 17 50 12 213 l-6 180 -29 0 c-16 0 -31 -6 -33 -12 -3 -7
-7 -125 -9 -263 -2 -137 -5 -257 -7 -265 -3 -18 -24 -40 -38 -40 -11 0 -16
-33 -13 -75 1 -11 14 -30 28 -42 14 -13 23 -23 21 -23 -3 0 0 -23 7 -52 9 -43
9 -58 -4 -85 -8 -18 -23 -32 -32 -33 -20 0 -24 -15 -8 -25 13 -8 -6 -35 -24
-34 -8 0 -8 2 0 5 7 3 10 14 7 24 -8 31 -23 13 -23 -28 0 -41 -28 -141 -29
-105 -1 12 -6 25 -13 29 -14 9 -48 -31 -48 -57 0 -10 -4 -19 -10 -19 -6 0 -10
29 -10 68 0 37 -4 73 -9 81 -8 13 -12 3 -27 -81 -3 -18 -9 -40 -12 -48 -4 -8
-9 232 -12 535 l-5 549 -200 3 c-110 1 -243 0 -295 -4 l-95 -6 60 -19 c33 -10
105 -30 159 -43 94 -23 127 -38 114 -50 -4 -5 -201 33 -538 103 -64 13 -181
16 -775 16 l-700 1 -110 -31 c-60 -18 -126 -35 -145 -39 -19 -3 -43 -9 -52
-11 -14 -4 -17 3 -20 38 -3 44 -13 51 -50 41z m637 -33 c3 -5 1 -10 -4 -10 -6
0 -11 5 -11 10 0 6 2 10 4 10 3 0 8 -4 11 -10z m1550 -80 c125 -26 129 -30 15
-15 -31 4 -30 3 10 -10 l45 -14 -45 5 c-118 14 -175 29 -178 47 -4 21 -16 22
153 -13z m245 0 c0 -5 -7 -7 -15 -4 -8 4 -15 8 -15 10 0 2 7 4 15 4 8 0 15 -4
15 -10z m-57 -37 c-7 -2 -19 -2 -25 0 -7 3 -2 5 12 5 14 0 19 -2 13 -5z m67
-3 c0 -5 -5 -10 -11 -10 -5 0 -7 5 -4 10 3 6 8 10 11 10 2 0 4 -4 4 -10z m118
-32 c7 -7 12 -16 12 -22 0 -5 -6 -3 -12 6 -7 9 -22 18 -33 21 -20 5 -20 5 1 6
11 0 25 -4 32 -11z m-778 -38 c6 -11 8 -20 6 -20 -3 0 -10 9 -16 20 -6 11 -8
20 -6 20 3 0 10 -9 16 -20z m-67 -11 c-8 -8 -6 -19 5 -39 24 -41 5 -58 -58
-56 -28 1 -50 -2 -50 -6 0 -5 -4 -8 -10 -8 -16 0 -12 18 13 53 35 50 46 59 72
61 14 0 25 5 25 10 0 5 3 6 7 3 4 -4 2 -12 -4 -18z m884 -71 c-2 -18 -4 -6 -4
27 0 33 2 48 4 33 2 -15 2 -42 0 -60z m-262 -171 c2 -55 6 -101 9 -105 3 -3 6
-11 6 -19 0 -16 -36 -17 -46 -1 -10 15 -5 318 4 333 10 14 23 -91 27 -208z
m37 151 c3 -26 0 -38 -9 -38 -14 0 -18 56 -6 87 8 20 9 17 15 -49z m-576 -33
c25 -61 7 -51 -25 14 -17 33 -31 63 -31 67 0 14 41 -46 56 -81z m141 48 c-3
-10 -5 -4 -5 12 0 17 2 24 5 18 2 -7 2 -21 0 -30z m633 -4 c0 -11 -4 -17 -10
-14 -5 3 -10 13 -10 21 0 8 5 14 10 14 6 0 10 -9 10 -21z m-422 -44 c8 -22 16
-92 19 -155 6 -115 6 -115 39 -146 l34 -32 0 -281 0 -282 -30 16 c-29 15 -30
18 -30 85 0 38 -4 72 -10 75 -6 3 -7 30 -3 65 5 48 3 61 -9 65 -12 5 -17 42
-22 202 -9 219 -19 274 -71 359 l-35 59 32 6 c60 12 72 7 86 -36z m282 35 c0
-5 -2 -10 -4 -10 -3 0 -8 5 -11 10 -3 6 -1 10 4 10 6 0 11 -4 11 -10z m-501
-210 c0 -115 -2 -141 -11 -125 -7 11 -18 26 -25 33 -8 8 -13 38 -13 80 0 37
-4 82 -10 101 -8 29 -6 38 13 61 37 45 46 16 46 -150z m-95 104 c10 -25 -1
-29 -14 -5 -6 12 -7 21 -1 21 5 0 12 -7 15 -16z m123 -176 c-3 -8 -6 -5 -6 6
-1 11 2 17 5 13 3 -3 4 -12 1 -19z m-7 -115 c-10 -16 -11 -15 -6 7 3 14 7 39
8 55 1 26 2 25 5 -7 2 -21 -1 -46 -7 -55z m475 68 c3 -5 1 -12 -5 -16 -5 -3
-10 1 -10 9 0 18 6 21 15 7z m-525 -58 c0 -17 -4 -35 -10 -38 -6 -4 -10 14
-10 47 0 38 3 49 10 38 5 -8 10 -29 10 -47z m1125 -3 c10 -11 15 -20 11 -20
-4 0 -16 9 -28 20 -12 11 -17 20 -11 20 5 0 18 -9 28 -20z m-928 -67 c-3 -10
-5 -2 -5 17 0 19 2 27 5 18 2 -10 2 -26 0 -35z m952 -13 c7 0 9 -4 6 -10 -3
-5 -15 -10 -26 -10 -13 0 -18 -4 -13 -12 4 -6 3 -8 -3 -5 -6 4 -8 18 -5 32 2
15 0 25 -7 25 -6 0 -11 7 -11 16 0 11 7 8 24 -10 13 -15 29 -26 35 -26z
m-1149 3 c0 -20 -3 -24 -11 -16 -7 7 -9 19 -6 27 10 24 17 19 17 -11z m1215
-42 c-3 -6 -11 -8 -17 -5 -6 4 -5 9 3 15 16 10 23 4 14 -10z m-1265 -68 c0
-61 -3 -74 -12 -65 -12 12 -21 119 -11 135 14 24 23 -3 23 -70z m625 48 c3 -5
1 -12 -5 -16 -5 -3 -10 1 -10 9 0 18 6 21 15 7z m-367 -51 c0 -22 -3 -40 -9
-40 -10 0 -13 63 -2 73 10 11 11 9 11 -33z m986 -10 c-6 -6 -10 -2 -11 12 -2
16 1 18 10 9 7 -7 8 -14 1 -21z m-984 -70 c0 -39 -15 -39 -16 0 -1 17 3 30 7
30 5 0 9 -13 9 -30z m1034 -6 c4 -9 4 -19 1 -22 -3 -3 -5 0 -5 6 0 7 -7 12
-15 12 -8 0 -15 5 -15 10 0 16 27 11 34 -6z m76 -74 c0 -5 -2 -10 -4 -10 -3 0
-8 5 -11 10 -3 6 -1 10 4 10 6 0 11 -4 11 -10z m-393 -52 c-2 -13 -4 -5 -4 17
-1 22 1 32 4 23 2 -10 2 -28 0 -40z m-713 -14 c9 -65 6 -205 -4 -229 -8 -19
-9 -18 -11 5 -1 14 -3 80 -4 148 -2 124 7 160 19 76z m361 37 c3 -5 1 -12 -5
-16 -5 -3 -10 1 -10 9 0 18 6 21 15 7z m618 -126 c4 -8 2 -17 -2 -20 -5 -2
-11 4 -14 15 -6 23 8 27 16 5z m69 -51 c-4 -30 -6 -34 -14 -20 -5 10 -7 24 -4
32 3 9 1 25 -5 37 -12 21 -11 21 8 5 14 -13 18 -27 15 -54z m-305 22 c-14 -36
-26 -12 -18 34 1 2 6 -1 12 -7 7 -7 9 -19 6 -27z m253 -43 c0 -15 -2 -16 -10
-3 -8 13 -10 12 -10 -2 0 -27 30 -22 31 5 0 14 2 17 6 7 3 -8 12 -21 21 -27
13 -11 9 -13 -25 -13 -43 0 -61 18 -40 39 16 16 27 14 27 -6z m-1101 -81 c1
-7 -3 -10 -9 -7 -5 3 -10 21 -9 38 1 31 1 31 9 7 4 -14 8 -31 9 -38z m281 24
c-24 -22 -66 -28 -80 -11 -9 10 -9 15 -1 15 6 0 11 -5 11 -12 0 -8 6 -6 17 5
10 9 29 17 42 17 22 0 23 -2 11 -14z m-90 -26 c0 -5 -4 -10 -10 -10 -5 0 -10
5 -10 10 0 6 5 10 10 10 6 0 10 -4 10 -10z m866 -36 c-3 -9 -6 -29 -6 -45 0
-24 -4 -29 -25 -29 -23 0 -25 4 -25 45 0 44 1 45 31 45 24 0 30 -3 25 -16z
m64 -28 c0 -48 -8 -60 -34 -50 -11 4 -16 19 -16 50 0 40 2 44 25 44 23 0 25
-4 25 -44z m-40 -66 c0 -5 -4 -10 -10 -10 -5 0 -10 5 -10 10 0 6 5 10 10 10 6
0 10 -4 10 -10z m8 -101 c-3 -24 -23 -25 -23 -1 0 7 -6 17 -14 21 -11 7 -10
10 5 13 26 6 36 -5 32 -33z m-954 -60 c18 -30 18 -30 -2 -36 -13 -3 -18 -11
-15 -19 3 -8 -1 -14 -10 -14 -21 0 -31 17 -15 23 7 3 3 6 -10 6 -18 1 -22 6
-20 24 8 55 44 63 72 16z m871 15 c13 -5 14 -8 3 -15 -19 -13 -28 -11 -28 6 0
17 2 18 25 9z m-985 -136 c0 -10 -7 -18 -15 -18 -17 0 -18 4 -8 38 4 18 8 20
14 10 5 -7 9 -21 9 -30z m970 32 c-12 -8 -11 -10 8 -10 12 0 22 -4 22 -9 0 -4
-11 -6 -25 -3 -28 5 -34 32 -7 32 14 0 15 -2 2 -10z m-863 -31 c2 -16 -3 -20
-25 -17 -39 4 -43 38 -5 38 22 0 29 -5 30 -21z m53 -54 c0 -14 -6 -26 -12 -26
-7 -1 -28 -3 -45 -5 -31 -3 -33 -2 -33 26 0 29 2 30 45 30 41 0 45 -2 45 -25z
m865 5 c3 -5 2 -10 -4 -10 -5 0 -13 5 -16 10 -3 6 -2 10 4 10 5 0 13 -4 16
-10z m-1011 -21 c-5 -9 1 -10 20 -5 15 4 26 2 26 -4 0 -12 -57 -14 -64 -1 -6
9 3 21 16 21 5 0 6 -5 2 -11z m-188 -50 c-3 -17 -6 -49 -6 -70 0 -32 -3 -39
-20 -39 -11 0 -20 3 -20 8 -5 72 -6 118 -3 125 2 4 16 7 30 7 23 0 25 -3 19
-31z m1184 21 c0 -5 -2 -10 -4 -10 -3 0 -8 5 -11 10 -3 6 -1 10 4 10 6 0 11
-4 11 -10z m-1005 -10 c8 -13 -15 -13 -35 0 -12 8 -11 10 7 10 12 0 25 -4 28
-10z m996 -23 c-6 -8 -8 -17 -4 -20 3 -4 1 -7 -5 -7 -6 0 -10 9 -9 20 1 11 8
20 15 20 11 0 12 -3 3 -13z m-615 -20 c3 -8 0 -25 -5 -39 -9 -25 -8 -26 20
-21 29 4 30 4 12 -16 -21 -25 -41 -27 -49 -6 -4 8 -15 15 -25 15 -11 0 -19 7
-19 18 0 14 -2 15 -10 2 -6 -9 -10 -10 -10 -3 0 6 -3 18 -6 27 -5 12 1 16 24
16 17 0 34 5 37 10 9 14 25 12 31 -3z m-200 -15 c6 -4 14 -27 17 -52 5 -39 4
-43 -8 -27 -10 13 -14 15 -18 5 -4 -9 -6 -7 -6 4 -1 9 -10 20 -21 23 -13 4
-20 14 -19 28 1 17 2 18 6 5 6 -24 23 -23 23 2 0 21 8 25 26 12z m-299 -54
c-2 -13 -4 -5 -4 17 -1 22 1 32 4 23 2 -10 2 -28 0 -40z m20 0 c-2 -13 -4 -5
-4 17 -1 22 1 32 4 23 2 -10 2 -28 0 -40z m330 46 c-3 -3 -12 -4 -19 -1 -8 3
-5 6 6 6 11 1 17 -2 13 -5z m747 -16 c-4 -13 -7 -29 -7 -35 0 -15 -13 -17 -22
-3 -3 6 -1 10 5 10 6 0 9 4 5 9 -3 5 -1 12 5 16 6 4 8 11 5 16 -4 5 -1 9 5 9
7 0 9 -8 4 -22z m-564 8 c0 -2 -7 -6 -15 -10 -8 -3 -15 -1 -15 4 0 6 7 10 15
10 8 0 15 -2 15 -4z m-183 -58 c-3 -7 -5 -2 -5 12 0 14 2 19 5 13 2 -7 2 -19
0 -25z m718 -47 c-7 -22 -11 -42 -8 -45 4 -3 1 -6 -6 -6 -7 0 -10 10 -7 25 8
42 17 65 26 65 5 0 3 -18 -5 -39z m-650 -25 c-5 -26 -12 -36 -26 -36 -29 0
-26 54 4 67 29 13 30 12 22 -31z m-275 -12 c0 -14 -4 -23 -10 -19 -5 3 -10 15
-10 26 0 10 5 19 10 19 6 0 10 -12 10 -26z m891 -74 c-11 -27 -17 -50 -15 -50
2 0 -17 -48 -42 -107 -43 -103 -114 -221 -154 -258 -18 -16 -18 -16 -13 4 3
12 8 20 10 17 6 -6 71 87 75 106 2 7 6 15 10 18 14 10 98 212 92 221 -3 5 0 9
5 9 6 0 10 3 9 8 -4 13 23 82 33 82 5 0 0 -22 -10 -50z m-793 5 c1 -18 -2 -23
-13 -19 -17 7 -17 7 -9 28 9 24 19 19 22 -9z m-81 -41 c-3 -3 -12 -4 -19 -1
-8 3 -5 6 6 6 11 1 17 -2 13 -5z m633 -408 c0 -8 -74 -75 -78 -71 -2 2 13 20
33 39 35 34 45 41 45 32z m-100 -91 c-7 -9 -15 -13 -19 -10 -3 3 1 10 9 15 21
14 24 12 10 -5z m-35 -24 c-3 -6 -11 -11 -16 -11 -5 0 -4 6 3 14 14 16 24 13
13 -3z m-40 -21 c-3 -5 -12 -10 -18 -10 -7 0 -6 4 3 10 19 12 23 12 15 0z
m-55 -25 c-30 -17 -40 -18 -40 -4 0 5 4 8 8 5 4 -2 14 -1 22 5 8 5 20 9 25 8
6 0 -1 -6 -15 -14z m-300 -17 c0 -4 -7 -8 -15 -8 -8 0 -15 4 -15 8 0 5 7 9 15
9 8 0 15 -4 15 -9z m87 -20 c-3 -8 -6 -5 -6 6 -1 11 2 17 5 13 3 -3 4 -12 1
-19z m123 12 c0 -5 -4 -10 -10 -10 -5 0 -10 5 -10 10 0 6 5 10 10 10 6 0 10
-4 10 -10z"/>
<path d="M1136 3381 c-3 -4 1 -17 9 -27 15 -19 15 -19 30 0 8 11 15 22 15 26
0 9 -48 11 -54 1z"/>
<path d="M3698 3384 c-5 -4 -8 -18 -8 -31 0 -14 -7 -32 -16 -41 -14 -13 -15
-30 -9 -104 3 -49 10 -101 15 -117 4 -16 9 -85 9 -155 2 -102 -1 -129 -14
-142 -20 -20 -19 -56 4 -128 18 -58 18 -58 24 -26 4 18 7 63 7 101 0 38 2 69
3 69 11 0 86 -81 92 -99 3 -12 11 -19 16 -16 12 8 12 102 -1 110 -12 8 -53 85
-48 91 2 2 21 -10 41 -27 48 -40 47 -31 -2 18 l-39 38 -12 128 c-14 141 -25
173 -16 45 3 -46 4 -78 2 -73 -11 28 -29 162 -34 258 -4 60 -10 105 -14 101z"/>
<path d="M2441 3311 c-11 -7 -10 -11 4 -18 10 -6 14 -13 9 -16 -10 -6 2 -434
15 -542 6 -51 9 18 10 246 1 326 -2 352 -38 330z"/>
<path d="M3732 3250 c0 -19 2 -27 5 -17 2 9 2 25 0 35 -3 9 -5 1 -5 -18z"/>
<path d="M1505 3150 c-3 -5 -13 -6 -23 -3 -15 6 -15 5 -3 -10 17 -21 18 -21
31 3 11 20 7 29 -5 10z"/>
<path d="M1465 3068 c-11 -24 -24 -43 -30 -44 -20 -2 -48 -18 -72 -42 -18 -18
-27 -22 -36 -13 -13 13 -31 15 -23 2 4 -5 -7 -15 -24 -23 -28 -12 -34 -21 -31
-41 1 -5 -2 -6 -7 -3 -5 3 -18 -1 -28 -9 -18 -13 -17 -14 16 -15 32 0 35 -3
36 -30 1 -17 -2 -30 -6 -30 -5 0 -13 -13 -19 -30 -6 -19 -17 -30 -28 -30 -10
0 -36 -9 -58 -20 -21 -11 -41 -17 -44 -15 -2 3 -23 -14 -45 -37 -44 -47 -76
-74 -76 -65 0 6 6 14 65 75 74 80 16 42 -66 -43 -46 -46 -85 -83 -87 -81 -2 2
-14 -6 -26 -18 -20 -18 -72 -64 -155 -135 -13 -12 -27 -21 -30 -21 -4 0 -27
-19 -53 -42 -25 -24 -61 -54 -79 -68 -19 -14 -58 -50 -89 -81 -61 -62 -152
-129 -174 -129 -8 0 -24 -12 -35 -26 -11 -14 -25 -23 -31 -19 -5 3 -10 2 -10
-3 0 -5 -21 -15 -47 -21 -27 -7 -58 -19 -71 -27 -12 -8 -26 -13 -31 -10 -4 3
-7 -11 -5 -31 1 -22 -1 -32 -5 -24 -7 11 -13 11 -32 0 -22 -11 -23 -11 -10 4
12 15 11 17 -3 17 -13 0 -16 -12 -16 -70 l0 -71 28 20 c15 10 70 47 122 81 85
57 203 150 300 240 19 18 112 98 205 178 94 81 173 150 176 155 4 5 12 6 18 3
6 -4 11 0 11 11 1 17 2 17 15 -1 13 -17 15 -18 15 -3 0 11 8 17 25 17 14 0 25
5 25 12 0 24 11 -1 15 -36 3 -19 9 -55 15 -78 5 -24 10 -60 10 -81 0 -41 24
-87 45 -87 8 0 20 -6 27 -13 7 -7 17 -14 23 -14 14 0 61 -83 70 -121 6 -27 3
-33 -23 -46 -36 -19 -92 -81 -92 -103 0 -10 9 -3 23 17 27 41 49 55 71 47 14
-6 14 -10 -4 -40 -12 -21 -18 -41 -14 -52 7 -16 3 -17 -30 -12 -24 4 -34 2
-30 -5 7 -11 363 -5 502 8 61 6 62 7 62 36 0 16 -5 38 -10 49 -6 10 -13 48
-17 84 -5 60 -8 65 -29 65 -17 0 -24 6 -24 20 0 12 -9 33 -20 48 -23 32 -25
90 -25 770 0 78 0 142 0 142 0 0 -9 -19 -20 -42z m-65 -208 c0 -21 -5 -42 -11
-46 -8 -5 -10 1 -7 20 3 14 2 26 -2 26 -4 0 -6 10 -5 23 3 29 3 29 15 22 6 -3
10 -24 10 -45z m-48 -31 c-4 -90 -21 -93 -22 -4 0 62 3 76 12 67 7 -7 11 -34
10 -63z m-82 -68 c0 -5 -7 -14 -15 -21 -16 -14 -18 -10 -9 14 6 17 24 22 24 7z
m172 -162 c7 -39 8 -79 3 -104 -8 -35 -10 -28 -16 61 -3 56 -10 108 -14 115
-6 11 -5 11 4 3 7 -6 17 -40 23 -75z m-305 -156 c-3 -10 -5 -2 -5 17 0 19 2
27 5 18 2 -10 2 -26 0 -35z m0 -80 c-3 -10 -5 -2 -5 17 0 19 2 27 5 18 2 -10
2 -26 0 -35z m60 -35 c33 -37 37 -56 5 -22 -16 17 -36 34 -43 37 -11 4 -10 6
2 6 8 1 25 -9 36 -21z m-47 -24 c0 -8 -4 -12 -10 -9 -5 3 -10 13 -10 21 0 8 5
12 10 9 6 -3 10 -13 10 -21z m156 -242 c-12 -11 -17 7 -9 34 l8 29 3 -28 c2
-16 1 -31 -2 -35z m-14 -83 c-2 -33 -8 -59 -14 -57 -12 4 -12 7 -4 68 9 70 22
62 18 -11z m-44 -18 c-3 -36 -3 -36 -50 -37 -27 -1 -48 1 -48 4 0 3 16 25 36
49 30 36 39 42 51 32 9 -8 13 -26 11 -48z m122 -16 c-14 -8 -34 -14 -45 -14
-13 0 -8 5 15 14 46 18 61 18 30 0z"/>
<path d="M1013 3069 c-41 -12 -56 -32 -16 -23 22 5 73 37 53 33 -3 0 -19 -5
-37 -10z"/>
<path d="M2550 2906 c0 -12 10 -16 37 -16 41 0 36 14 -9 25 -22 6 -28 4 -28
-9z"/>
<path d="M3818 2913 c7 -3 16 -2 19 1 4 3 -2 6 -13 5 -11 0 -14 -3 -6 -6z"/>
<path d="M2634 2903 c10 -10 46 -11 46 -1 0 4 -12 8 -27 8 -14 0 -23 -3 -19
-7z"/>
<path d="M4108 2863 c12 -2 30 -2 40 0 9 3 -1 5 -23 4 -22 0 -30 -2 -17 -4z"/>
<path d="M2601 2821 c-9 -16 -8 -19 6 -17 20 3 28 21 14 30 -5 4 -15 -2 -20
-13z"/>
<path d="M2720 2821 c0 -5 7 -12 16 -15 14 -5 15 -4 4 9 -14 17 -20 19 -20 6z"/>
<path d="M4145 2810 c3 -5 11 -10 16 -10 6 0 7 5 4 10 -3 6 -11 10 -16 10 -6
0 -7 -4 -4 -10z"/>
<path d="M4157 2773 c3 -7 -5 -22 -18 -33 -28 -23 -13 -27 19 -4 24 17 30 51
8 51 -8 0 -12 -6 -9 -14z"/>
<path d="M3011 2734 c0 -11 3 -14 6 -6 3 7 2 16 -1 19 -3 4 -6 -2 -5 -13z"/>
<path d="M2623 2724 c-8 -22 13 -42 30 -25 10 10 9 12 -3 9 -9 -2 -14 4 -14
15 2 21 -5 22 -13 1z"/>
<path d="M250 2600 c-8 -5 -12 -12 -9 -15 4 -3 12 1 19 10 14 17 11 19 -10 5z"/>
<path d="M2516 2582 c-2 -4 21 -30 52 -57 31 -27 46 -36 32 -21 -18 20 -20 25
-7 20 10 -3 17 -1 17 5 0 6 -5 11 -12 11 -6 0 -26 11 -44 25 -18 14 -35 22
-38 17z"/>
<path d="M1913 2538 c-33 -35 -48 -112 -33 -167 39 -147 170 -103 170 57 0 78
-29 126 -81 130 -26 2 -40 -3 -56 -20z m78 2 c10 -6 26 -24 34 -40 24 -47 17
-160 -10 -160 -7 0 -20 -10 -28 -22 -11 -15 -19 -19 -24 -12 -4 6 -16 13 -26
17 -27 10 -50 74 -42 117 4 19 8 44 10 55 1 11 8 19 14 17 7 -1 10 2 7 7 -4 5
2 14 11 20 23 13 30 13 54 1z"/>
<path d="M1996 2477 c3 -10 9 -15 12 -12 3 3 0 11 -7 18 -10 9 -11 8 -5 -6z"/>
<path d="M1933 2420 c0 -25 2 -35 4 -22 2 12 2 32 0 45 -2 12 -4 2 -4 -23z"/>
<path d="M2171 2524 c-23 -29 -29 -101 -11 -135 17 -32 30 -21 13 11 -12 25
-12 36 -2 67 12 36 12 36 21 13 6 -16 5 -26 -3 -31 -9 -5 -8 -11 3 -22 11 -12
18 -13 27 -4 14 14 15 37 1 37 -5 0 -10 7 -10 15 0 22 17 18 34 -7 16 -22 16
-22 16 9 0 22 -8 38 -26 52 -34 27 -38 26 -63 -5z"/>
<path d="M1723 2518 c-34 -38 -43 -64 -43 -125 0 -69 26 -119 66 -129 92 -23
142 158 68 246 -31 36 -63 39 -91 8z m84 -21 c15 5 28 -94 17 -138 -4 -19 -7
-37 -6 -40 3 -15 -38 -40 -60 -36 -22 4 -21 4 3 6 15 0 33 9 40 19 13 15 12
16 -3 3 -12 -8 -30 -11 -51 -7 -26 5 -36 13 -45 39 -24 67 -10 127 35 150 16
9 34 12 43 7 8 -4 20 -5 27 -3z"/>
<path d="M1766 2475 c4 -8 8 -15 10 -15 2 0 4 7 4 15 0 8 -4 15 -10 15 -5 0
-7 -7 -4 -15z"/>
<path d="M1807 2400 c-3 -11 -1 -20 4 -20 5 0 9 9 9 20 0 11 -2 20 -4 20 -2 0
-6 -9 -9 -20z"/>
<path d="M2639 2487 c23 -25 23 -27 5 -26 -10 1 -43 1 -72 1 l-54 -2 7 -39 c5
-33 2 -48 -20 -85 -15 -25 -39 -54 -53 -65 -15 -11 -24 -22 -20 -26 7 -8 43
28 69 70 15 24 19 26 19 10 0 -18 2 -18 24 5 13 14 22 27 20 29 -10 11 113 74
152 79 40 4 42 6 33 24 -8 15 -14 17 -22 9 -19 -19 -49 -12 -81 17 l-31 27 24
-28z"/>
<path d="M1582 2449 c-29 -4 -56 -9 -59 -12 -3 -3 -2 -33 2 -66 l7 -61 36 0
c66 0 82 9 81 44 0 17 -3 47 -7 66 l-7 35 -53 -6z"/>
<path d="M2251 2413 c-1 -6 -4 -20 -7 -30 -5 -17 -5 -17 6 0 6 10 9 23 6 30
-3 9 -5 9 -5 0z"/>
<path d="M2581 2353 c-18 -20 -46 -56 -61 -78 -16 -23 -42 -48 -59 -54 -26
-11 -67 -69 -56 -80 7 -6 77 58 125 115 40 47 96 134 87 134 -2 0 -18 -17 -36
-37z"/>
<path d="M2277 2300 c-9 -25 -25 -43 -40 -49 -14 -5 -108 -19 -208 -29 l-184
-20 163 0 c89 -1 167 -4 172 -7 26 -16 3 -133 -34 -172 -12 -12 -29 -31 -39
-41 -21 -23 -64 -29 -257 -37 -74 -4 -146 -9 -160 -12 -24 -6 -23 -7 12 -17
23 -7 78 -9 155 -4 65 3 166 7 225 7 91 1 107 -1 102 -14 -4 -8 -10 -13 -15
-10 -4 3 -13 -4 -19 -16 -7 -12 -8 -19 -3 -16 5 3 15 2 23 -4 11 -6 2 -9 -30
-10 -25 -1 -63 -3 -85 -5 -29 -2 -43 1 -52 13 -12 16 -14 15 -27 -2 -12 -17
-32 -20 -167 -25 -129 -5 -156 -3 -166 9 -11 13 -15 13 -25 -2 -11 -13 -33
-17 -118 -18 -58 -1 -186 -7 -285 -14 -175 -12 -177 -12 -75 -14 101 -2 129
-6 230 -31 145 -37 145 -38 18 -39 l-118 -1 0 -35 c0 -23 8 -44 21 -58 12 -12
19 -15 15 -7 -4 8 2 4 13 -9 12 -13 24 -21 27 -18 8 8 34 -18 34 -33 0 -7 7
-10 15 -6 34 12 58 -94 40 -174 -8 -36 -8 -190 0 -222 4 -16 13 -28 21 -28 8
0 11 -6 7 -17 -6 -17 -5 -17 13 -1 35 31 121 32 110 1 -3 -8 -2 -12 3 -9 5 3
11 0 14 -8 3 -8 -1 -17 -9 -20 -8 -3 -14 -10 -14 -16 0 -5 37 16 83 48 45 33
120 83 167 112 47 29 100 67 119 84 19 17 31 25 27 19 -4 -7 -5 -13 -2 -13 10
0 66 82 62 89 -3 4 24 38 59 76 36 39 65 75 65 82 0 6 8 18 18 25 9 7 18 20
20 28 5 21 23 41 32 35 4 -2 16 5 26 17 13 14 15 22 7 25 -7 2 -9 11 -6 19 3
8 0 14 -6 14 -6 0 -13 -11 -17 -25 -3 -14 -12 -25 -19 -25 -17 0 -23 84 -13
165 5 33 10 98 13 145 4 74 39 215 66 271 10 21 23 89 17 89 -3 0 -12 -18 -21
-40z m-197 -490 c0 -5 -11 -10 -24 -10 -14 0 -28 5 -31 10 -4 6 7 10 24 10 17
0 31 -4 31 -10z m-297 -100 c3 -11 1 -20 -4 -20 -5 0 -9 9 -9 20 0 11 2 20 4
20 2 0 6 -9 9 -20z m-33 -145 c0 -8 -4 -15 -10 -15 -5 0 -10 7 -10 15 0 8 5
15 10 15 6 0 10 -7 10 -15z m16 -112 c-3 -3 -13 -3 -22 1 -13 5 -14 9 -3 22
11 14 13 14 22 -1 5 -9 6 -19 3 -22z m4 -21 c0 -5 -3 -11 -6 -15 -3 -3 -7 -29
-9 -57 -4 -59 -8 -65 -30 -56 -14 5 -15 14 -10 49 4 23 11 47 16 53 5 6 4 15
-3 22 -9 9 -6 12 15 12 15 0 27 -4 27 -8z m-220 -28 c0 -2 -9 -4 -21 -4 -11 0
-18 4 -14 10 5 8 35 3 35 -6z m137 -36 c-3 -8 -6 -5 -6 6 -1 11 2 17 5 13 3
-3 4 -12 1 -19z"/>
<path d="M1650 2271 c0 -6 5 -13 10 -16 6 -3 10 1 10 9 0 9 -4 16 -10 16 -5 0
-10 -4 -10 -9z"/>
<path d="M2925 2230 c-3 -5 -1 -10 5 -10 6 0 8 -4 5 -10 -3 -5 1 -10 9 -10 9
0 16 9 16 20 0 21 -24 28 -35 10z"/>
<path d="M1730 2192 c0 -4 19 -6 43 -4 70 5 76 10 15 11 -32 0 -58 -2 -58 -7z"/>
<path d="M1548 2179 c-8 -5 13 -9 50 -9 35 0 61 4 58 9 -7 11 -90 11 -108 0z"/>
<path d="M2046 2165 c-17 -25 -16 -25 4 -13 11 7 20 18 20 25 0 19 -6 16 -24
-12z"/>
<path d="M1981 2164 c0 -11 3 -14 6 -6 3 7 2 16 -1 19 -3 4 -6 -2 -5 -13z"/>
<path d="M1859 2143 l-24 -28 30 25 c17 14 32 26 34 28 2 1 0 2 -6 2 -5 0 -20
-12 -34 -27z"/>
<path d="M1881 2096 c-14 -14 -19 -26 -13 -26 7 0 14 0 17 0 3 0 5 3 4 6 0 4
5 10 11 14 7 4 11 13 9 19 -3 8 -14 2 -28 -13z"/>
<path d="M2033 2078 c-28 -32 -36 -48 -24 -48 6 0 11 7 11 15 0 8 5 14 11 13
6 -2 18 7 26 20 9 12 11 22 6 22 -5 0 -19 -10 -30 -22z"/>
<path d="M1740 2080 c0 -5 5 -10 11 -10 5 0 7 5 4 10 -3 6 -8 10 -11 10 -2 0
-4 -4 -4 -10z"/>
<path d="M2237 2053 c-2 -5 -1 -30 3 -58 4 -27 8 -43 10 -35 8 49 8 70 -1 75
-5 4 -7 11 -4 16 4 5 4 9 1 9 -3 0 -7 -3 -9 -7z"/>
<path d="M947 1833 c-13 -12 -7 -88 8 -109 12 -18 28 -22 117 -28 57 -3 109
-7 116 -8 8 -1 17 -11 21 -22 9 -25 -3 -239 -18 -322 -19 -103 -8 -209 34
-306 12 -29 -38 -32 -153 -9 -59 11 -126 21 -149 21 -32 0 -51 8 -85 35 -129
104 -222 136 -403 142 -201 6 -217 8 -240 38 -63 83 -78 93 -137 100 l-58 6 0
-685 0 -686 779 0 778 0 39 44 c44 50 126 160 143 193 6 12 44 47 84 77 40 30
81 65 92 77 l20 23 -25 -17 c-14 -10 -38 -26 -55 -37 -16 -10 -40 -29 -53 -42
l-23 -23 26 70 c56 147 68 297 38 438 -19 91 -17 88 -173 169 -73 37 -131 59
-191 72 -84 18 -88 18 -158 -2 l-72 -20 -11 27 c-32 82 -38 111 -38 180 0 42
7 114 14 161 8 47 17 133 21 193 4 59 11 110 16 113 29 17 -4 24 -118 24 -71
0 -134 4 -141 9 -7 4 -13 19 -14 32 -1 63 -13 91 -31 72z"/>
<path d="M3688 1833 c7 -3 16 -2 19 1 4 3 -2 6 -13 5 -11 0 -14 -3 -6 -6z"/>
<path d="M3620 1741 c0 -11 48 -24 60 -16 21 13 8 25 -25 25 -19 0 -35 -4 -35
-9z"/>
<path d="M4078 1623 c7 -3 16 -2 19 1 4 3 -2 6 -13 5 -11 0 -14 -3 -6 -6z"/>
<path d="M2790 1600 c0 -5 5 -10 10 -10 6 0 10 5 10 10 0 6 -4 10 -10 10 -5 0
-10 -4 -10 -10z"/>
<path d="M1401 1534 c0 -11 3 -14 6 -6 3 7 2 16 -1 19 -3 4 -6 -2 -5 -13z"/>
<path d="M2141 678 c-11 -13 -74 -99 -94 -128 -6 -8 11 6 37 31 26 25 48 53
50 61 1 9 8 23 15 32 7 9 11 16 8 16 -4 0 -11 -6 -16 -12z"/>
</g>
</svg>
