<?xml version="1.0" standalone="no"?>
<!DOCTYPE svg PUBLIC "-//W3C//DTD SVG 20010904//EN"
 "http://www.w3.org/TR/2001/REC-SVG-20010904/DTD/svg10.dtd">
<svg version="1.0" xmlns="http://www.w3.org/2000/svg"
 width="640.000000pt" height="433.000000pt" viewBox="0 0 640.000000 433.000000"
 preserveAspectRatio="xMidYMid meet">

<g transform="translate(0.000000,433.000000) scale(0.100000,-0.100000)"
fill="#000000" stroke="none">
<path d="M2010 4323 c14 -3 288 -52 610 -110 322 -57 653 -116 737 -131 l152
-26 -65 -69 c-36 -37 -73 -84 -82 -104 -14 -30 -20 -34 -45 -29 -15 3 -90 11
-165 17 -237 19 -1431 165 -1924 235 -47 7 -48 6 -48 -20 0 -47 23 -166 31
-166 5 0 9 -7 9 -15 0 -8 -4 -15 -8 -15 -5 0 -5 -24 -1 -52 5 -29 13 -91 18
-138 6 -47 28 -227 50 -400 23 -173 41 -324 41 -335 0 -17 2 -17 10 -5 6 10 8
-1 4 -35 -3 -27 -1 -68 5 -90 8 -36 9 -33 5 25 -3 36 -1 79 5 95 5 17 10 22
10 13 1 -12 9 -18 24 -19 12 0 72 -4 132 -8 92 -7 114 -6 138 8 15 8 27 18 27
22 0 4 9 5 20 2 11 -3 20 -9 20 -14 0 -5 4 -9 8 -9 5 0 9 7 9 15 0 8 -4 12 -9
9 -4 -3 -8 0 -8 6 0 6 -5 8 -11 4 -8 -4 -8 0 0 15 7 11 18 21 26 21 21 0 21
-86 0 -94 -8 -3 -15 -15 -15 -26 0 -11 7 -23 15 -26 18 -7 20 -35 4 -51 -12
-12 -4 -83 9 -83 4 0 7 -27 7 -59 0 -58 -1 -60 -29 -65 -16 -3 -97 -7 -180 -8
l-151 -2 130 -7 c237 -14 239 -15 249 -139 4 -47 14 -112 22 -144 9 -32 17
-115 20 -184 2 -69 8 -128 14 -132 6 -3 9 -45 9 -96 -2 -93 5 -114 52 -169 13
-16 18 -46 21 -137 3 -78 1 -119 -6 -122 -6 -2 5 -5 26 -5 l36 -1 -5 102 c-6
97 -5 101 13 94 84 -35 159 -29 240 20 84 51 90 48 99 -41 6 -69 9 -75 29 -75
13 0 25 2 27 5 3 2 -1 39 -10 81 l-14 76 24 19 c13 10 42 24 64 30 22 6 48 15
58 20 9 5 29 6 43 3 32 -8 235 57 207 67 -10 3 10 6 45 7 53 1 66 -3 90 -24
15 -14 20 -22 12 -18 -13 7 -13 5 -1 -9 7 -9 11 -26 8 -38 -4 -16 -3 -18 8 -9
7 6 12 19 10 28 -2 9 -4 25 -4 35 -1 25 -59 57 -104 57 -20 0 -85 -16 -144
-35 -114 -37 -146 -41 -206 -24 -34 9 -38 13 -31 32 4 12 8 50 7 84 0 59 1 62
28 72 26 9 29 14 29 55 0 58 -8 76 -32 76 -19 0 -20 -5 -15 -49 5 -44 4 -48
-13 -44 -20 5 -37 66 -20 71 26 9 5 22 -36 22 -27 0 -43 4 -39 10 10 16 -7 12
-45 -12 -60 -36 -258 -26 -234 13 3 5 10 7 15 3 6 -3 18 1 27 9 9 8 32 18 50
22 17 3 32 11 32 16 0 5 7 9 16 9 13 0 14 3 5 14 -10 11 -8 16 8 21 10 3 25
13 33 22 12 15 11 15 -9 4 -19 -10 -28 -8 -58 11 -40 27 -44 45 -12 57 24 9
48 4 59 -13 4 -6 12 -11 18 -11 6 0 15 -7 20 -15 8 -12 10 -11 10 8 0 21 3 22
43 16 23 -4 46 -10 52 -15 13 -12 65 -11 65 1 0 6 -15 11 -32 12 -27 1 -25 2
12 7 25 3 44 11 43 16 -1 6 -4 49 -7 95 -4 58 -11 89 -21 96 -22 16 -19 20 23
22 20 2 96 12 167 22 72 10 158 19 192 19 56 -1 66 3 112 38 27 21 50 46 50
56 1 14 11 17 64 17 34 0 79 3 99 6 35 6 38 9 44 52 12 83 40 117 137 162 38
18 86 49 108 70 23 21 42 39 45 39 2 1 9 1 14 1 6 0 9 3 9 8 -3 20 3 23 18 11
11 -10 14 -10 9 -1 -11 19 11 14 26 -5 19 -26 88 -71 121 -79 15 -3 27 -9 25
-13 -13 -28 -86 -110 -99 -110 -16 -1 -34 -16 -108 -94 -36 -38 -107 -77 -139
-77 -10 0 -36 -21 -58 -47 -28 -35 -47 -49 -69 -51 -16 -2 -41 -11 -55 -20
-14 -9 -30 -15 -36 -14 -20 4 -188 -48 -214 -66 -43 -31 -197 -85 -324 -114
-104 -24 -112 -27 -61 -24 70 5 122 14 150 26 62 28 208 71 227 68 19 -2 28
-19 55 -92 49 -137 48 -129 1 -144 -22 -7 -88 -17 -147 -23 -176 -16 -314 -37
-257 -38 41 -1 59 -8 111 -46 35 -25 79 -63 98 -86 28 -33 34 -36 30 -18 -6
21 -4 22 9 12 8 -7 18 -10 21 -7 10 10 -37 71 -84 109 -36 28 -50 34 -76 30
-18 -3 -33 -1 -33 4 0 10 48 18 197 32 59 6 129 13 155 16 40 4 49 2 60 -16
13 -22 42 -28 53 -11 3 5 25 9 49 8 23 0 52 5 64 11 27 14 32 14 32 -3 0 -20
42 -52 405 -311 176 -126 341 -244 367 -263 l47 -35 -56 -39 c-31 -22 -99 -77
-152 -122 -87 -75 -108 -88 -223 -134 l-128 -51 -242 -11 c-134 -5 -338 -10
-454 -10 -184 0 -213 2 -218 16 -5 13 -19 15 -77 12 -59 -2 -72 0 -80 15 -7
11 -17 15 -32 12 -12 -3 -65 -7 -117 -8 -82 -2 -100 -5 -124 -24 -23 -18 -42
-23 -90 -23 -115 0 -176 -33 -176 -93 0 -18 8 -44 17 -57 36 -53 60 -53 80 0
14 34 21 41 57 48 52 11 56 8 56 -34 0 -32 2 -34 33 -33 17 0 59 5 92 9 71 10
569 53 875 75 204 15 326 13 315 -6 -7 -10 28 -29 54 -29 19 0 26 10 22 32 0
4 6 5 14 2 8 -3 26 4 41 15 15 12 23 21 18 21 -12 0 18 20 30 20 5 0 1 -9 -8
-19 -10 -11 -24 -37 -31 -57 -7 -21 -18 -40 -24 -42 -6 -2 -9 3 -5 11 6 17
-12 32 -21 17 -3 -5 -1 -10 4 -10 20 0 6 -25 -24 -43 -30 -18 -24 -18 35 -1
18 5 20 1 19 -38 -3 -63 10 -129 33 -165 41 -68 182 -154 255 -155 80 -2 279
50 368 95 65 33 94 42 153 47 44 3 74 1 76 -5 3 -5 5 1 5 13 1 25 21 26 29 2
3 -7 0 -10 -7 -6 -6 4 -11 3 -11 -2 0 -5 9 -12 20 -15 18 -4 20 -2 14 16 -6
21 -6 21 13 4 28 -25 41 -21 14 4 -12 12 -19 24 -15 28 4 3 9 1 11 -6 5 -13
33 -6 33 9 0 5 -4 7 -9 4 -5 -4 -20 -2 -33 3 -26 10 -23 12 55 35 26 8 47 12
47 10 0 -9 -53 -79 -58 -77 -4 1 -8 -10 -8 -24 -1 -13 -15 -45 -30 -70 -25
-39 -59 -65 -229 -173 -110 -70 -202 -127 -205 -126 -3 1 -16 -9 -30 -22 l-25
-25 35 19 c19 10 117 72 219 136 102 65 187 116 189 114 2 -2 -4 -28 -12 -57
-26 -87 -21 -143 18 -213 46 -82 160 -212 213 -243 99 -58 25 -24 -269 123
-172 86 -308 152 -303 146 9 -8 274 -146 674 -349 90 -46 169 -83 175 -83 6 1
-7 11 -29 23 -34 18 -37 22 -18 25 12 2 27 10 33 18 7 8 23 14 36 14 12 0 26
5 29 10 3 6 13 10 21 10 31 0 274 130 344 184 30 24 111 73 180 110 68 37 149
89 180 115 30 26 72 59 92 74 45 33 63 86 54 160 -4 27 -8 52 -10 56 -3 4 -7
25 -11 49 -5 34 -1 50 21 88 23 39 38 51 98 78 39 18 91 45 115 60 24 15 40
23 37 17 -12 -18 5 -12 40 14 18 14 35 25 38 25 3 0 6 -42 6 -94 0 -52 4 -105
9 -118 4 -13 11 -35 15 -51 l7 -28 -61 3 c-55 2 -62 0 -93 -30 -18 -18 -41
-32 -50 -32 -27 0 -20 -29 9 -36 14 -4 29 -16 33 -28 9 -25 28 -148 47 -318
l7 -56 -134 -162 c-74 -89 -135 -166 -137 -171 -2 -5 2 -9 10 -9 7 0 69 70
138 155 l125 155 12 -29 c7 -16 17 -32 23 -36 15 -9 12 -41 -5 -55 -20 -17
-19 -38 5 -85 11 -22 20 -48 20 -60 0 -32 29 -42 128 -44 l92 -2 0 701 0 701
-22 -3 c-26 -3 -37 -36 -17 -49 21 -12 -31 -21 -104 -17 l-64 3 5 -47 c2 -27
1 -48 -3 -48 -5 0 -32 22 -61 50 -29 28 -59 50 -66 50 -7 0 -19 9 -25 19 -12
19 -104 71 -126 71 -34 1 -37 15 -21 83 13 50 14 73 6 91 -5 12 -6 29 -2 36 4
7 11 53 15 102 6 74 4 92 -9 114 -16 24 -16 26 3 42 10 9 22 27 26 39 7 26 3
26 -154 -29 -147 -51 -153 -53 -111 -31 61 33 80 47 80 60 0 20 -22 16 -88
-18 -34 -16 -67 -29 -74 -28 -7 2 -56 -7 -108 -19 -52 -12 -103 -24 -113 -26
-9 -2 -15 0 -11 5 7 13 -10 11 -23 -2 -5 -5 -27 -11 -47 -12 -20 -1 -36 -5
-36 -9 0 -5 -13 -8 -28 -8 -15 0 -33 -5 -40 -12 -7 -7 -12 -8 -12 -2 0 5 -4 3
-9 -4 -5 -8 -20 -15 -35 -15 -14 -1 -26 -5 -26 -9 0 -5 -7 -8 -15 -8 -7 0 -18
-7 -23 -17 -7 -12 -18 -15 -48 -10 -31 5 -52 0 -110 -28 -40 -18 -75 -38 -79
-44 -3 -6 -19 -11 -35 -11 -15 0 -31 -6 -34 -12 -3 -7 -3 0 -1 15 3 24 2 27
-10 17 -8 -7 -13 -16 -10 -20 10 -16 -90 -100 -135 -114 -75 -22 -354 3 -328
30 2 2 29 10 59 18 59 16 31 20 -40 7 -50 -10 -67 -6 -75 15 -3 8 -2 13 3 10
5 -3 11 3 14 13 3 12 26 27 66 41 34 13 64 27 67 31 3 5 -27 -3 -66 -17 -83
-30 -100 -28 -70 6 12 14 28 37 36 52 7 14 30 40 51 57 l37 30 -60 -24 c-32
-14 -75 -27 -94 -31 -19 -3 -49 -13 -67 -22 -26 -13 -34 -13 -47 -3 -24 20
-19 59 12 89 l27 27 -140 99 c-77 55 -144 104 -150 108 -45 38 -242 177 -250
177 -29 -3 -55 2 -50 10 3 5 1 12 -5 16 -14 9 -12 25 3 25 8 0 14 6 14 14 0
11 -11 10 -55 -5 -31 -11 -57 -17 -59 -16 -2 2 52 36 120 75 67 39 156 95 197
125 41 30 98 66 126 80 l51 26 37 -25 c38 -26 44 -39 24 -48 -8 -3 -7 -5 2 -3
9 1 48 -35 88 -80 40 -46 82 -87 92 -93 18 -9 20 -23 22 -108 1 -53 3 -76 5
-49 2 26 8 47 14 47 5 0 9 11 9 25 0 49 20 24 22 -27 l1 -53 6 49 6 48 55 -58
c31 -33 95 -105 144 -162 111 -130 120 -136 194 -129 174 16 495 100 562 147
22 15 125 69 282 147 27 12 57 23 68 23 36 0 174 -31 203 -45 15 -8 35 -11 43
-8 7 3 14 0 14 -6 0 -8 30 -9 103 -5 56 4 110 6 120 6 9 0 17 4 17 9 0 6 -4 8
-9 4 -5 -3 -18 6 -29 20 -11 13 -21 23 -23 21 -2 -2 -18 -6 -35 -9 -23 -4 -37
-1 -52 13 -12 12 -23 16 -27 10 -10 -17 -45 -12 -39 5 4 8 11 12 17 8 6 -3 7
-1 3 5 -5 8 -14 9 -24 4 -14 -8 -51 -9 -85 -3 -5 0 -6 5 -2 10 3 5 -10 8 -29
6 -39 -3 -67 9 -41 18 9 4 13 3 10 -3 -3 -6 -1 -10 4 -10 6 0 11 4 11 9 0 13
49 20 81 11 20 -6 29 -4 33 6 4 11 -1 13 -21 8 -20 -5 -24 -4 -18 6 5 8 4 11
-2 7 -6 -4 -16 0 -23 8 -7 8 -16 15 -21 15 -7 0 -59 47 -59 53 0 1 31 1 70 0
38 0 70 3 70 7 0 4 -22 7 -50 6 -27 -1 -50 1 -50 4 0 12 74 32 120 33 51 1
110 -19 110 -37 1 -6 7 3 14 19 11 26 11 32 -5 43 -10 7 -32 14 -48 15 -19 1
-26 6 -20 11 15 16 10 26 -12 26 -12 0 -30 10 -41 22 -14 16 -30 22 -63 23
-34 0 -41 3 -33 13 6 7 20 10 32 7 12 -3 15 -2 9 1 -7 3 -13 12 -13 20 0 17
27 19 32 2 2 -6 10 3 18 21 19 46 5 78 -55 123 -27 21 -51 42 -53 46 -1 5 13
33 33 63 46 70 45 92 -2 123 -21 13 -53 40 -72 60 -19 19 -39 32 -45 29 -6 -3
-8 -3 -4 2 9 10 -11 37 -22 30 -5 -3 -34 21 -66 52 -31 32 -49 48 -39 36 10
-13 13 -23 7 -23 -6 0 -14 5 -17 10 -3 6 -10 10 -16 10 -16 0 -10 -18 14 -41
12 -12 16 -19 10 -15 -19 11 -16 -2 7 -26 11 -12 18 -29 15 -38 -8 -27 42 -72
79 -69 48 3 66 0 66 -12 0 -5 -4 -8 -9 -5 -5 3 -12 -1 -15 -10 -3 -8 -10 -13
-16 -9 -5 3 -17 -3 -27 -14 -15 -19 -19 -19 -39 -6 -13 8 -24 10 -26 5 -5 -16
-84 -23 -109 -9 -18 9 -24 9 -27 0 -2 -7 -12 1 -23 18 -19 32 -52 38 -69 11
-9 -15 -30 -5 -30 15 0 8 -8 19 -17 25 -16 10 -16 11 3 7 13 -3 21 1 21 9 0 7
-4 11 -8 8 -4 -2 -10 0 -14 6 -4 6 -12 8 -18 4 -7 -3 -4 1 5 8 15 13 15 16 -8
33 -14 10 -23 24 -20 31 3 7 -2 10 -13 7 -10 -2 -24 3 -31 12 -16 20 -23 48
-9 39 5 -3 9 0 9 6 0 6 5 8 12 4 8 -5 9 -2 4 11 -6 18 -6 18 15 -1 l22 -19
-22 42 c-11 23 -25 45 -31 48 -14 9 32 45 57 45 10 0 31 -7 48 -16 33 -17 72
-12 72 10 0 8 -6 12 -14 9 -7 -3 -13 -1 -13 3 0 20 -94 12 -148 -12 -45 -20
-52 -21 -41 -6 7 9 1 6 -14 -7 -15 -14 -43 -48 -64 -78 -37 -53 -60 -76 -28
-27 14 22 15 28 4 36 -11 8 -10 9 3 4 20 -6 45 28 28 39 -6 4 -5 11 3 20 8 9
16 10 25 3 6 -6 12 -7 12 -3 0 7 -60 70 -69 71 -3 0 -15 4 -25 9 -18 8 -18 9
4 17 15 5 27 5 34 -2 8 -8 5 -9 -9 -5 l-20 7 20 -13 c11 -7 24 -18 28 -26 4
-7 16 -13 25 -13 13 0 12 3 -6 16 -12 8 -20 19 -17 24 3 4 -1 11 -7 13 -10 4
-9 8 2 17 13 10 13 11 -1 7 -22 -7 -138 21 -163 40 -21 15 -21 15 4 8 36 -10
14 10 -32 29 -41 16 -53 6 -15 -12 15 -7 17 -11 6 -11 -8 -1 -25 8 -37 19 -24
22 -29 36 -10 24 7 -4 8 -3 4 4 -4 7 -22 12 -39 12 -18 0 -53 7 -79 14 -25 8
-49 12 -53 8 -3 -3 -3 1 1 11 3 10 1 17 -5 17 -7 0 -11 -23 -11 -62 0 -77 -8
-73 -11 7 -3 74 -8 92 -20 73 -7 -10 -9 -8 -9 6 0 13 -5 16 -16 12 -14 -5 -15
-4 -5 8 10 12 9 13 -9 9 -15 -4 -21 -1 -20 8 4 28 0 38 -15 33 -11 -5 -15 1
-15 19 0 14 -8 31 -17 36 -16 9 -16 10 -2 11 9 0 19 -6 22 -14 6 -16 67 -36
107 -36 20 0 22 2 10 10 -10 6 -11 10 -2 10 6 0 12 8 12 19 0 15 -10 20 -52
25 -29 4 -72 9 -95 12 -41 6 -43 5 -43 -19 0 -21 -12 -32 -67 -63 -38 -21 -84
-50 -104 -66 -47 -38 -66 -30 -74 33 -7 52 -68 203 -106 265 -45 74 -189 173
-251 174 -15 0 -30 5 -33 10 -9 14 -41 12 -54 -4 -6 -7 -39 -16 -74 -19 -34
-3 -83 -13 -109 -22 -44 -16 -54 -15 -165 5 -65 12 -138 25 -163 30 -25 6
-117 21 -204 35 -206 33 -750 128 -886 154 -58 12 -121 20 -140 20 -27 -1 -29
-3 -10 -6z m-575 -293 c-3 -5 -11 -10 -16 -10 -6 0 -7 5 -4 10 3 6 11 10 16
10 6 0 7 -4 4 -10z m558 -57 c-7 -2 -19 -2 -25 0 -7 3 -2 5 12 5 14 0 19 -2
13 -5z m-85 -32 c12 -14 13 -14 8 3 -5 15 -4 17 7 8 7 -7 51 -14 96 -16 45 -3
130 -10 189 -16 273 -28 316 -39 320 -86 2 -32 24 -53 64 -61 45 -9 76 -45 83
-97 11 -72 2 -90 -57 -117 -48 -21 -69 -23 -241 -26 -146 -2 -191 -5 -202 -16
-8 -8 -11 -18 -7 -23 4 -5 0 -3 -9 4 -20 15 -102 10 -123 -7 -9 -8 -24 -10
-38 -5 -13 4 -49 7 -80 6 -32 0 -58 3 -58 7 0 4 -33 2 -72 -6 -40 -8 -99 -17
-131 -20 -66 -6 -151 13 -143 32 3 8 -2 11 -15 8 -14 -4 -19 0 -19 16 0 15 4
20 13 15 6 -3 -1 5 -17 18 -20 17 -25 27 -18 32 7 4 12 22 12 41 0 19 4 36 9
40 5 3 12 19 16 35 4 17 10 30 15 30 4 0 6 9 3 19 -3 13 3 23 19 32 12 7 26
12 29 12 4 -1 6 6 6 15 0 9 5 28 11 42 l11 25 0 -27 c1 -29 25 -48 59 -48 28
0 50 39 44 78 -3 20 2 41 13 58 16 25 18 26 103 18 61 -5 91 -12 100 -23z
m1027 -101 c-3 -5 -11 -10 -16 -10 -6 0 -7 5 -4 10 3 6 11 10 16 10 6 0 7 -4
4 -10z m340 -62 c5 4 4 1 0 -7 -6 -11 -4 -13 8 -8 11 4 17 1 17 -9 0 -12 -4
-13 -22 -3 -27 15 -28 15 -39 -2 -11 -19 -2 -29 27 -29 13 0 24 -3 24 -6 0
-25 -36 -48 -145 -94 -70 -29 -129 -59 -132 -67 -3 -8 1 -30 10 -48 l16 -33
-62 0 c-68 0 -87 6 -66 19 10 6 11 9 2 9 -21 0 -15 34 12 65 13 17 36 44 50
62 20 25 37 33 73 39 26 4 59 15 74 26 15 10 44 25 65 33 21 7 32 14 25 14
-17 1 -11 34 8 42 8 4 22 3 31 -2 9 -5 20 -5 24 -1z m868 -125 c-17 -3 -23
-13 -26 -41 l-4 -37 -1 43 c-2 40 -1 42 26 41 22 -1 23 -2 5 -6z m340 -12 c-2
-10 -17 -28 -32 -39 -22 -16 -30 -17 -43 -8 -15 11 -15 13 4 25 11 7 17 8 14
2 -13 -20 12 -20 30 1 19 21 19 21 0 14 -16 -5 -17 -4 -6 9 18 21 39 19 33 -4z
m-413 5 c0 -2 -7 -7 -16 -10 -8 -3 -12 -2 -9 4 6 10 25 14 25 6z m489 -49 c0
-9 -2 -8 -6 1 -2 6 -10 9 -15 6 -7 -4 -8 -2 -4 5 9 13 26 5 25 -12z m-167 -45
c38 -4 49 -1 54 12 26 69 16 -82 -11 -165 -18 -53 -25 -60 -75 -78 -19 -7 -45
-18 -58 -24 l-23 -11 23 -12 c16 -9 28 -9 42 -2 15 8 21 8 24 -1 3 -9 8 -9 20
1 14 11 15 10 8 -7 -4 -11 -13 -32 -18 -47 -11 -30 -22 -35 -34 -17 -5 8 -10
7 -16 -4 -5 -9 -15 -14 -23 -11 -9 4 -28 -9 -48 -30 -19 -20 -43 -37 -53 -37
-71 -5 -104 -3 -105 6 -1 5 -2 19 -3 30 -1 16 -8 20 -34 18 -18 0 -41 -9 -50
-20 -42 -46 -95 -83 -118 -83 -16 0 -39 -15 -67 -45 -41 -42 -77 -58 -77 -34
0 5 -5 7 -10 4 -6 -3 -22 2 -38 13 -15 11 -41 23 -59 26 -18 4 -47 20 -66 34
-27 22 -32 31 -24 44 10 15 13 15 36 0 25 -16 26 -16 10 3 -15 19 -69 127 -69
139 0 3 7 6 16 6 27 0 9 24 -27 35 -74 22 -76 27 -25 78 39 40 52 47 84 47 21
0 47 -7 58 -15 10 -8 15 -15 11 -15 -17 0 15 -40 33 -40 10 0 22 -4 25 -10 4
-6 -1 -7 -12 -3 -12 4 -7 -5 13 -26 28 -29 33 -31 58 -20 24 11 25 13 10 30
-12 13 -14 26 -9 46 4 15 9 39 11 53 7 36 72 90 109 90 17 0 37 -6 43 -12 7
-7 28 -11 47 -10 18 2 43 -2 54 -8 45 -23 170 36 197 94 l16 33 52 -25 c28
-14 72 -27 98 -30z m518 -92 c8 -5 11 -10 5 -10 -5 0 -17 5 -25 10 -8 5 -10
10 -5 10 6 0 17 -5 25 -10z m-290 -51 c0 -22 -4 -38 -8 -35 -8 5 -4 76 4 76 2
0 4 -18 4 -41z m246 6 c-1 -8 -5 -17 -8 -21 -5 -4 -4 16 1 34 3 9 9 -1 7 -13z
m81 -1 c-3 -3 -12 -4 -19 -1 -8 3 -5 6 6 6 11 1 17 -2 13 -5z m28 -13 c-3 -6
-11 -11 -16 -11 -5 0 -4 6 3 14 14 16 24 13 13 -3z m78 -51 c3 -11 1 -20 -4
-20 -5 0 -9 9 -9 20 0 11 2 20 4 20 2 0 6 -9 9 -20z m-1516 -178 c27 -32 25
-46 -8 -50 -13 -2 -30 -8 -36 -14 -25 -20 -43 -1 -43 46 0 63 42 72 87 18z
m813 -29 c-11 -17 -11 -17 -6 0 3 10 6 24 7 30 0 9 2 9 5 0 3 -7 0 -20 -6 -30z
m860 -23 c0 -5 -2 -10 -4 -10 -3 0 -8 5 -11 10 -3 6 -1 10 4 10 6 0 11 -4 11
-10z m-3295 -10 c3 -5 1 -10 -4 -10 -6 0 -11 5 -11 10 0 6 2 10 4 10 3 0 8 -4
11 -10z m3320 0 c3 -5 1 -10 -4 -10 -6 0 -11 5 -11 10 0 6 2 10 4 10 3 0 8 -4
11 -10z m-1155 -4 c0 -2 -9 -6 -20 -9 -11 -3 -18 -1 -14 4 5 9 34 13 34 5z
m-1564 -27 c24 -6 44 -16 44 -21 0 -6 9 -8 19 -5 13 3 18 0 15 -8 -3 -7 6 -22
20 -33 14 -11 26 -25 26 -31 0 -6 4 -11 9 -11 6 0 25 -25 43 -55 18 -30 36
-55 40 -55 4 0 16 -18 27 -41 14 -28 16 -41 8 -44 -12 -4 -214 -29 -322 -40
l-60 -6 -43 83 c-23 46 -36 75 -29 65 12 -15 16 -15 26 -3 8 10 8 15 1 18 -14
4 18 96 45 129 19 23 73 69 82 69 2 0 24 -5 49 -11z m1809 2 c3 -5 1 -12 -5
-16 -5 -3 -10 1 -10 9 0 18 6 21 15 7z m-2402 -80 c-14 -11 -13 -31 2 -32 8
-1 19 -2 24 -3 5 0 19 -14 31 -29 22 -27 22 -29 4 -43 -11 -9 -13 -13 -6 -9 7
4 13 -1 14 -12 2 -27 4 -36 11 -58 3 -11 8 -32 11 -48 3 -15 8 -36 11 -47 6
-17 2 -20 -29 -20 -25 0 -36 4 -36 15 0 8 -4 15 -10 15 -5 0 -10 7 -10 15 0 8
5 15 10 15 14 0 2 68 -18 98 -9 14 -10 22 -3 22 21 0 13 51 -9 57 -16 4 -20
14 -20 49 0 24 5 44 10 44 6 0 11 12 12 28 1 18 3 15 5 -12 3 -21 1 -42 -4
-45z m2368 -23 c1 -61 8 -129 14 -158 5 -20 -4 -14 -42 29 -57 64 -72 89 -73
117 0 23 23 39 53 35 9 -1 17 3 17 8 0 6 7 11 15 11 11 0 15 -12 16 -42z
m1063 23 c9 -7 16 -19 16 -25 0 -6 -4 -5 -9 3 -5 7 -13 11 -18 8 -5 -3 -14 3
-20 13 -10 14 -9 18 2 16 7 -1 20 -8 29 -15z m366 -41 c0 -5 -5 -10 -11 -10
-5 0 -7 5 -4 10 3 6 8 10 11 10 2 0 4 -4 4 -10z m-3450 -154 c0 -26 -6 -18
-14 19 -5 22 -4 26 4 15 5 -8 10 -24 10 -34z m40 -26 c8 -15 8 -18 -3 -14 -8
3 -14 11 -14 19 0 20 4 19 17 -5z m-147 -72 c-2 -5 -11 -8 -19 -8 -10 0 -14
12 -14 43 l1 42 18 -35 c11 -19 17 -38 14 -42z m759 30 c-6 -6 -15 -8 -19 -4
-4 4 -1 11 7 16 19 12 27 3 12 -12z m-677 -7 c15 -2 -18 -21 -36 -21 -9 0 -16
6 -16 13 0 8 9 12 21 11 12 -1 26 -3 31 -3z m-158 -23 c-3 -8 -6 -5 -6 6 -1
11 2 17 5 13 3 -3 4 -12 1 -19z m3625 -80 c-9 -9 -9 -15 1 -26 11 -13 9 -14
-11 -1 -21 13 -21 15 -5 27 21 15 31 16 15 0z m-1322 -8 c0 -5 -2 -10 -4 -10
-3 0 -8 5 -11 10 -3 6 -1 10 4 10 6 0 11 -4 11 -10z m-340 -14 c0 -8 -4 -17
-9 -21 -12 -7 -24 12 -16 25 9 15 25 12 25 -4z m735 -9 c0 -26 -20 -25 -23 2
-3 16 1 22 10 19 7 -3 13 -12 13 -21z m-2395 -46 c0 -21 -25 -35 -43 -24 -7 4
-8 0 -4 -11 4 -10 7 -29 7 -43 0 -17 4 -23 14 -20 18 7 36 -12 36 -37 0 -17
-5 -15 -35 14 -19 19 -35 42 -35 51 0 10 -4 20 -9 23 -4 3 -6 17 -4 30 4 18
13 26 32 29 14 2 29 5 34 6 4 0 7 -8 7 -18z m-83 -13 c-3 -8 -6 -5 -6 6 -1 11
2 17 5 13 3 -3 4 -12 1 -19z m-20 -3 c0 -17 -13 -20 -22 -5 -4 6 -11 7 -17 4
-7 -4 -8 -2 -4 4 10 17 43 15 43 -3z m-46 -72 c70 -72 80 -96 41 -91 -20 2
-28 9 -30 28 -2 14 -7 29 -11 33 -11 12 -61 -10 -61 -27 0 -9 -7 -12 -19 -9
-15 4 -20 18 -25 65 -5 45 -4 63 5 69 18 11 36 -1 100 -68z m-138 14 c3 -33 1
-47 -7 -44 -11 4 -18 74 -9 90 8 14 12 4 16 -46z m322 43 c3 -5 1 -10 -4 -10
-6 0 -11 5 -11 10 0 6 2 10 4 10 3 0 8 -4 11 -10z m-25 -48 c0 -8 -1 -13 -3
-11 -1 2 -9 12 -16 22 -12 15 -12 17 3 11 9 -3 16 -13 16 -22z m3265 -92 c-3
-5 -12 -10 -18 -10 -7 0 -6 4 3 10 19 12 23 12 15 0z m-3245 -10 c12 -8 11
-10 -7 -10 -13 0 -23 5 -23 10 0 13 11 13 30 0z m2115 -30 c3 -5 -1 -10 -9
-10 -9 0 -16 5 -16 10 0 6 4 10 9 10 6 0 13 -4 16 -10z m1278 -97 c-7 -2 -21
-2 -30 0 -10 3 -4 5 12 5 17 0 24 -2 18 -5z m-3473 -103 c0 -5 6 -10 14 -10
12 0 32 -58 22 -67 -2 -2 -20 -7 -40 -10 -32 -5 -36 -3 -36 16 0 12 -5 31 -10
42 -6 11 -8 24 -5 29 8 13 55 13 55 0z m2340 -55 c0 -8 -7 -15 -15 -15 -8 0
-15 7 -15 15 0 8 7 15 15 15 8 0 15 -7 15 -15z m-2605 -35 c-8 -12 5 -60 16
-60 5 0 9 17 9 38 0 20 4 32 8 25 4 -6 5 -52 2 -101 -4 -79 -3 -92 13 -101 9
-6 17 -17 17 -24 0 -6 -8 -3 -16 8 -16 20 -16 20 -10 -1 5 -16 2 -23 -14 -27
-43 -11 -54 1 -74 82 -20 88 -19 117 7 113 9 -2 19 4 22 13 3 8 7 22 10 30 2
8 7 15 10 15 4 0 4 -4 0 -10z m64 -100 c0 -23 -1 -23 -9 -5 -5 11 -9 31 -9 45
0 23 1 23 9 5 5 -11 9 -31 9 -45z m265 29 c15 -75 5 -129 -24 -129 -32 0 -51
11 -41 24 13 16 2 66 -15 66 -8 0 -14 9 -14 19 0 11 -2 25 -5 33 -4 9 8 14 44
16 47 3 48 2 55 -29z m-144 11 c0 -5 -4 -10 -10 -10 -5 0 -10 5 -10 10 0 6 5
10 10 10 6 0 10 -4 10 -10z m3370 -130 c0 -5 -8 -10 -17 -10 -15 0 -16 2 -3
10 19 12 20 12 20 0z m-2950 -10 c-8 -5 -19 -10 -25 -10 -5 0 -3 5 5 10 8 5
20 10 25 10 6 0 3 -5 -5 -10z m3203 -55 c3 -36 2 -52 -3 -40 -8 19 -14 113 -6
104 2 -2 6 -31 9 -64z m-3453 35 c0 -5 -10 -10 -22 -10 -19 0 -20 2 -8 10 19
13 30 13 30 0z m3310 -31 c0 -10 6 -20 13 -22 6 -3 -8 -6 -33 -6 -25 0 -52 4
-60 9 -9 6 -11 10 -3 10 7 0 10 7 6 15 -4 13 2 16 36 14 31 -2 41 -7 41 -20z
m-3380 -9 c0 -5 -4 -10 -10 -10 -5 0 -10 5 -10 10 0 6 5 10 10 10 6 0 10 -4
10 -10z m1859 -70 c-12 -22 -25 -38 -27 -35 -7 7 31 75 41 75 5 0 -2 -18 -14
-40z m-2095 18 c-15 -7 -28 -7 -40 1 -16 9 -12 10 21 10 35 0 37 -2 19 -11z
m2049 -13 c-3 -9 -8 -14 -10 -11 -3 3 -2 9 2 15 9 16 15 13 8 -4z m-13 -99 c0
-3 -4 -8 -10 -11 -5 -3 -10 -1 -10 4 0 6 5 11 10 11 6 0 10 -2 10 -4z m553
-105 c63 -43 79 -64 71 -95 -5 -23 -9 -24 -28 -14 -41 21 -149 112 -138 116 6
2 28 -9 49 -24 l38 -26 -33 28 c-58 51 -27 62 41 15z m1402 -344 c25 -28 45
-56 45 -61 0 -6 -11 6 -25 25 -13 19 -48 56 -77 83 -31 28 -40 39 -21 27 18
-12 53 -45 78 -74z m-2575 -16 c0 -5 -7 -12 -16 -15 -14 -5 -15 -4 -4 9 14 17
20 19 20 6z m2767 -113 c-3 -8 -6 -5 -6 6 -1 11 2 17 5 13 3 -3 4 -12 1 -19z
m-1910 -200 c-3 -8 -6 -5 -6 6 -1 11 2 17 5 13 3 -3 4 -12 1 -19z m428 -768
c3 -6 -1 -7 -9 -4 -18 7 -21 14 -7 14 6 0 13 -4 16 -10z m40 -20 c3 -6 -1 -7
-9 -4 -18 7 -21 14 -7 14 6 0 13 -4 16 -10z m1360 -40 c3 -5 2 -10 -4 -10 -5
0 -13 5 -16 10 -3 6 -2 10 4 10 5 0 13 -4 16 -10z"/>
<path d="M2006 3521 c-4 -7 -5 -15 -2 -18 9 -9 19 4 14 18 -4 11 -6 11 -12 0z"/>
<path d="M3853 3473 c-13 -8 -23 -24 -23 -35 0 -10 10 -23 23 -28 17 -7 18 -9
5 -9 -10 -1 -18 -7 -18 -15 0 -18 17 -30 24 -18 3 5 17 7 31 4 14 -2 25 0 25
5 0 16 -35 43 -54 43 -12 0 -16 5 -12 16 3 9 6 19 6 24 0 18 33 20 45 3 8 -10
17 -14 22 -10 8 9 -24 37 -41 36 -6 0 -21 -7 -33 -16z"/>
<path d="M3942 3307 l-23 -24 42 -27 c22 -15 43 -25 47 -22 3 3 1 6 -5 6 -11
0 -29 39 -35 73 -3 17 -5 16 -26 -6z"/>
<path d="M1947 2944 c7 -3 9 -13 6 -22 -4 -14 -3 -14 5 -2 12 16 7 30 -11 29
-9 0 -9 -2 0 -5z"/>
<path d="M4710 1476 c0 -2 8 -10 18 -17 15 -13 16 -12 3 4 -13 16 -21 21 -21
13z"/>
<path d="M4927 4313 c-16 -26 -33 -114 -29 -146 3 -29 -2 -47 -22 -77 -14 -22
-31 -40 -36 -40 -6 0 -10 -5 -10 -11 0 -5 4 -7 10 -4 6 3 7 -1 4 -10 -6 -14
-8 -14 -18 -1 -7 9 -21 13 -37 10 -21 -5 -25 -10 -21 -34 4 -25 10 -30 54 -39
69 -15 91 -14 84 4 -3 9 0 15 9 15 7 0 15 -10 17 -22 2 -18 13 -24 60 -34 50
-10 59 -9 72 5 37 42 75 257 54 301 -14 28 8 41 82 47 73 6 73 6 51 25 -13 10
-39 18 -60 18 -48 0 -163 -19 -176 -29 -5 -4 -18 -11 -29 -15 -13 -5 -17 -2
-12 9 7 20 -37 45 -47 28z m82 -89 c-12 -20 -28 -64 -35 -98 l-13 -61 5 59 c5
59 14 87 42 119 25 28 25 20 1 -19z m15 -26 c-4 -13 -13 -52 -20 -88 l-12 -65
0 60 c1 63 14 115 30 115 5 0 6 -10 2 -22z m81 -67 c-8 -64 -30 -140 -47 -164
-11 -15 -13 -3 -12 70 1 88 6 118 27 161 11 22 12 23 25 5 9 -13 11 -33 7 -72z"/>
<path d="M4750 4265 c0 -37 8 -43 28 -23 20 20 15 58 -8 58 -16 0 -20 -7 -20
-35z"/>
<path d="M4817 4184 c-12 -12 -8 -41 7 -53 17 -14 39 9 34 36 -3 18 -29 29
-41 17z m18 -24 c3 -5 1 -10 -4 -10 -6 0 -11 5 -11 10 0 6 2 10 4 10 3 0 8 -4
11 -10z"/>
<path d="M4670 4160 c-14 -10 -22 -22 -18 -25 10 -10 48 14 48 30 0 19 0 19
-30 -5z"/>
<path d="M4387 4143 c-12 -11 -8 -43 6 -44 6 0 3 -4 -8 -8 -19 -8 -19 -8 3
-15 12 -4 22 -12 22 -17 0 -19 40 -8 60 18 19 24 19 28 5 36 -9 5 -32 7 -51 5
-23 -3 -34 0 -34 9 0 16 47 17 87 3 26 -9 27 -9 9 5 -20 15 -87 21 -99 8z"/>
<path d="M4605 4116 c-14 -21 -15 -31 -5 -60 13 -41 42 -72 33 -35 -5 18 -3
21 11 16 10 -4 15 -3 11 3 -3 6 -2 10 4 10 5 0 11 -5 13 -10 2 -7 10 -6 22 3
17 12 17 18 7 50 -11 33 -15 36 -33 26 -17 -9 -24 -8 -34 6 -11 15 -14 15 -29
-9z m55 -26 c0 -3 -5 -12 -10 -20 -8 -12 -10 -11 -10 8 0 12 -4 22 -10 22 -5
0 -10 5 -10 10 0 6 8 5 20 -2 11 -7 20 -15 20 -18z"/>
<path d="M4338 4083 c7 -3 16 -2 19 1 4 3 -2 6 -13 5 -11 0 -14 -3 -6 -6z"/>
<path d="M4710 4020 c0 -5 7 -7 15 -4 8 4 15 8 15 10 0 2 -7 4 -15 4 -8 0 -15
-4 -15 -10z"/>
<path d="M5110 3965 c0 -8 2 -15 4 -15 2 0 6 7 10 15 3 8 1 15 -4 15 -6 0 -10
-7 -10 -15z"/>
<path d="M4109 3957 c5 -5 19 -7 32 -5 20 3 19 5 -9 9 -20 3 -29 2 -23 -4z"/>
<path d="M4180 3920 l0 -32 48 7 c31 4 118 -4 261 -25 117 -17 219 -29 225
-27 6 3 -11 7 -39 11 -27 4 -77 13 -110 21 -51 12 -204 41 -310 58 -16 3 -40
8 -52 12 -21 7 -23 4 -23 -25z"/>
<path d="M5175 3890 c28 -12 57 -12 50 0 -3 6 -21 10 -38 9 -27 0 -29 -2 -12
-9z"/>
<path d="M5257 3887 c-6 -16 19 -27 61 -27 17 0 23 5 20 18 -4 22 -73 30 -81
9z"/>
<path d="M4790 3825 c36 -8 76 -14 90 -13 14 0 -4 6 -40 14 -36 7 -76 13 -90
13 -14 -1 4 -7 40 -14z"/>
<path d="M4995 3789 c50 -10 106 -18 125 -17 19 0 -12 8 -70 18 -135 24 -172
23 -55 -1z"/>
<path d="M5178 3763 c12 -2 32 -2 45 0 12 2 2 4 -23 4 -25 0 -35 -2 -22 -4z"/>
<path d="M5258 3753 c6 -2 18 -2 25 0 6 3 1 5 -13 5 -14 0 -19 -2 -12 -5z"/>
<path d="M5308 3743 c6 -2 18 -2 25 0 6 3 1 5 -13 5 -14 0 -19 -2 -12 -5z"/>
<path d="M5368 3733 c6 -2 18 -2 25 0 6 3 1 5 -13 5 -14 0 -19 -2 -12 -5z"/>
<path d="M5418 3723 c6 -2 18 -2 25 0 6 3 1 5 -13 5 -14 0 -19 -2 -12 -5z"/>
<path d="M5488 3713 c7 -3 16 -2 19 1 4 3 -2 6 -13 5 -11 0 -14 -3 -6 -6z"/>
<path d="M4550 3706 c0 -2 8 -10 18 -17 15 -13 16 -12 3 4 -13 16 -21 21 -21
13z"/>
<path d="M5548 3703 c7 -3 16 -2 19 1 4 3 -2 6 -13 5 -11 0 -14 -3 -6 -6z"/>
<path d="M5598 3693 c6 -2 18 -2 25 0 6 3 1 5 -13 5 -14 0 -19 -2 -12 -5z"/>
<path d="M5668 3683 c7 -3 16 -2 19 1 4 3 -2 6 -13 5 -11 0 -14 -3 -6 -6z"/>
<path d="M5728 3673 c7 -3 16 -2 19 1 4 3 -2 6 -13 5 -11 0 -14 -3 -6 -6z"/>
<path d="M853 3483 c9 -2 25 -2 35 0 9 3 1 5 -18 5 -19 0 -27 -2 -17 -5z"/>
<path d="M4940 3480 c8 -5 20 -10 25 -10 6 0 3 5 -5 10 -8 5 -19 10 -25 10 -5
0 -3 -5 5 -10z"/>
<path d="M968 3473 c17 -2 47 -2 65 0 17 2 3 4 -33 4 -36 0 -50 -2 -32 -4z"/>
<path d="M5286 3432 c-7 -12 3 -42 13 -42 9 0 8 37 -1 45 -3 4 -9 2 -12 -3z"/>
<path d="M5158 3394 c9 -12 19 -20 21 -18 2 2 -1 10 -7 17 -7 8 -10 16 -7 19
3 2 -1 5 -9 5 -12 0 -11 -5 2 -23z"/>
<path d="M680 3393 c-8 -3 -18 -11 -22 -17 -5 -8 -11 -7 -20 2 -26 26 -29 13
-14 -60 9 -40 32 -51 43 -20 3 9 11 23 17 31 14 18 16 41 4 41 -6 0 -5 6 2 15
13 16 13 16 -10 8z"/>
<path d="M898 3373 c-22 -5 -24 -23 -3 -23 9 0 15 -10 16 -22 1 -19 2 -20 6
-5 3 13 11 17 24 14 14 -4 19 0 19 14 0 10 -4 19 -9 19 -5 0 -15 2 -23 4 -7 2
-21 2 -30 -1z"/>
<path d="M5360 3366 c14 -8 27 -12 29 -10 6 6 -1 11 -29 18 l-25 7 25 -15z"/>
<path d="M590 3344 c0 -16 5 -36 10 -44 6 -10 7 -2 3 25 -7 49 -13 58 -13 19z"/>
<path d="M725 3343 c8 -12 12 -29 9 -37 -3 -9 -1 -16 5 -16 10 0 13 6 15 40 1
11 14 15 50 15 31 0 51 5 54 13 3 10 -14 12 -72 10 -75 -3 -75 -3 -61 -25z"/>
<path d="M562 3330 c0 -14 2 -19 5 -12 2 6 2 18 0 25 -3 6 -5 1 -5 -13z"/>
<path d="M1060 3326 c0 -2 9 -6 20 -9 11 -3 20 -1 20 4 0 5 -9 9 -20 9 -11 0
-20 -2 -20 -4z"/>
<path d="M5070 3309 c0 -5 5 -7 10 -4 6 3 10 8 10 11 0 2 -4 4 -10 4 -5 0 -10
-5 -10 -11z"/>
<path d="M690 3301 c0 -5 8 -15 18 -21 13 -8 -2 -10 -60 -8 -43 2 -78 3 -78 3
0 0 9 -25 20 -55 17 -49 19 -51 17 -20 l-2 35 55 -1 c32 -1 40 0 20 3 -57 7
-60 23 -4 24 52 0 112 17 67 18 -12 1 -29 8 -37 17 -9 8 -16 11 -16 5z"/>
<path d="M798 3298 c9 -9 15 -9 24 0 9 9 7 12 -12 12 -19 0 -21 -3 -12 -12z"/>
<path d="M985 3290 c-3 -5 1 -10 10 -10 9 0 13 5 10 10 -3 6 -8 10 -10 10 -2
0 -7 -4 -10 -10z"/>
<path d="M5205 3281 c-3 -5 -1 -12 5 -16 5 -3 10 1 10 9 0 18 -6 21 -15 7z"/>
<path d="M5385 3260 c3 -5 8 -10 11 -10 2 0 4 5 4 10 0 6 -5 10 -11 10 -5 0
-7 -4 -4 -10z"/>
<path d="M725 3250 c-3 -5 -2 -10 4 -10 5 0 13 5 16 10 3 6 2 10 -4 10 -5 0
-13 -4 -16 -10z"/>
<path d="M797 3243 c6 -16 5 -16 -10 -5 -9 8 -22 10 -29 6 -19 -12 33 -23 55
-12 23 12 22 28 -3 28 -14 0 -18 -5 -13 -17z"/>
<path d="M1720 2999 c0 -5 5 -7 10 -4 6 3 10 8 10 11 0 2 -4 4 -10 4 -5 0 -10
-5 -10 -11z"/>
<path d="M2977 2690 c-4 -16 0 -20 23 -20 19 0 29 6 33 20 4 16 0 20 -23 20
-19 0 -29 -6 -33 -20z"/>
<path d="M1360 2621 c0 -5 5 -13 10 -16 6 -3 10 -2 10 4 0 5 -4 13 -10 16 -5
3 -10 2 -10 -4z"/>
<path d="M4370 2100 c-8 -5 -12 -12 -8 -15 6 -6 -43 -107 -65 -134 -9 -11 -4
-10 20 2 18 10 39 17 48 17 9 0 27 23 42 54 22 46 24 57 14 70 -15 18 -29 20
-51 6z"/>
<path d="M4332 2053 c-21 -31 -58 -102 -48 -92 10 9 75 119 71 119 -2 0 -12
-12 -23 -27z"/>
<path d="M2810 1859 c0 -6 7 -8 16 -5 9 4 23 1 30 -5 9 -7 14 -8 14 -1 0 11
-23 22 -46 22 -8 0 -14 -5 -14 -11z"/>
<path d="M1243 1843 c9 -2 23 -2 30 0 6 3 -1 5 -18 5 -16 0 -22 -2 -12 -5z"/>
<path d="M1155 1830 c-27 -7 -27 -8 -5 -8 14 0 36 4 50 8 20 6 21 8 5 8 -11 0
-33 -4 -50 -8z"/>
<path d="M2895 1740 c-17 -32 -31 -41 -21 -12 9 24 -40 -37 -58 -73 -16 -33
-15 -38 5 -30 23 9 111 145 94 145 -2 0 -11 -13 -20 -30z m-49 -70 c-14 -17
-26 -29 -26 -25 0 12 42 66 47 61 3 -3 -6 -19 -21 -36z"/>
<path d="M2255 1640 c-13 -5 -14 -9 -5 -9 8 0 24 4 35 9 13 5 14 9 5 9 -8 0
-24 -4 -35 -9z"/>
<path d="M2175 1620 c-25 -11 1 -11 35 0 20 6 21 8 5 8 -11 0 -29 -3 -40 -8z"/>
<path d="M2130 1610 c-13 -8 -12 -10 3 -10 9 0 17 5 17 10 0 12 -1 12 -20 0z"/>
<path d="M553 1392 c-63 -20 -90 -42 -99 -79 -4 -15 -16 -34 -26 -41 -23 -17
-20 -58 3 -56 15 1 15 -5 3 -70 -20 -102 -14 -97 -81 -79 -83 22 -233 14 -291
-16 -39 -20 -42 -24 -42 -64 0 -59 19 -180 29 -190 5 -5 30 7 57 26 64 46 282
157 286 146 2 -5 19 -5 38 1 62 18 69 15 63 -27 -3 -21 -23 -92 -44 -158 -34
-108 -43 -125 -84 -165 -65 -63 -114 -141 -142 -224 -24 -69 -25 -91 -8 -172
6 -29 -1 -53 -59 -187 l-16 -37 495 0 495 0 -19 36 c-33 60 -4 139 78 218 22
22 37 44 34 49 -3 6 -2 7 3 4 5 -3 21 4 34 15 l25 20 -44 -7 c-54 -7 -64 -13
-57 -32 4 -9 2 -11 -6 -6 -20 11 -49 11 -45 -1 5 -12 -115 -13 -152 -1 -14 4
-21 2 -21 -7 0 -8 -4 -6 -11 4 -13 23 -38 23 -46 1 -3 -10 -13 -26 -21 -35
-13 -15 -13 -18 -1 -18 12 0 12 -2 0 -9 -8 -5 -21 -7 -29 -3 -10 3 -13 1 -8
-6 3 -6 2 -13 -4 -17 -5 -3 -10 -1 -10 5 0 7 -7 9 -16 6 -13 -5 -15 -2 -11 13
4 18 2 18 -22 8 -14 -6 -35 -17 -47 -24 -17 -11 -26 -10 -53 3 -21 11 -43 14
-64 9 -18 -3 -42 -6 -54 -7 -13 0 -23 -4 -23 -9 0 -5 -6 -9 -13 -9 -8 0 -19
-11 -25 -25 -7 -14 -20 -25 -31 -25 -11 0 -36 -9 -56 -20 -20 -11 -44 -20 -54
-20 -11 0 -21 -6 -24 -12 -2 -7 -7 -10 -11 -6 -4 3 7 39 25 80 29 65 99 258
149 408 36 107 85 286 95 348 6 35 4 42 -10 42 -9 0 -13 5 -9 11 3 6 17 8 30
5 26 -7 64 8 64 24 0 5 -7 7 -15 4 -8 -4 -17 1 -21 10 -3 9 -12 16 -20 16 -11
0 -12 4 -4 18 24 43 39 95 34 121 -8 38 13 56 83 70 32 6 69 18 81 27 19 13
22 13 22 1 0 -8 7 -20 16 -28 8 -7 13 -21 10 -31 -3 -13 3 -22 18 -29 35 -16
50 -47 33 -67 -37 -43 -19 -80 25 -53 16 10 22 10 31 -2 12 -14 87 -114 280
-372 126 -167 246 -311 271 -324 12 -7 35 -38 51 -69 16 -31 42 -70 57 -86 16
-16 28 -33 28 -37 0 -5 20 -31 44 -58 24 -27 50 -66 57 -85 l13 -36 141 0 140
0 -33 26 c-18 14 -40 40 -48 56 -15 29 -15 32 2 41 35 20 112 98 128 130 15
31 16 31 17 7 1 -28 3 -23 19 38 12 45 22 51 48 26 10 -11 17 -13 20 -5 2 6
12 11 22 11 15 0 22 14 34 69 9 39 16 79 16 89 0 18 -24 31 -56 32 -12 0 -47
-73 -59 -122 -14 -56 -30 -21 -28 59 0 6 -5 10 -11 7 -6 -2 -35 15 -65 37 -36
27 -68 43 -95 47 -23 2 -48 10 -56 17 -8 7 -41 25 -72 39 -35 15 -58 31 -58
40 0 9 -5 16 -11 16 -5 0 -7 -4 -4 -10 7 -11 -21 -12 -47 -2 -9 4 -32 27 -51
52 -27 35 -44 48 -81 58 -63 17 -131 15 -168 -4 l-31 -16 -74 74 c-41 40 -78
80 -83 89 -7 11 1 35 25 80 35 66 54 131 47 162 -3 15 -17 17 -108 17 -58 0
-114 -4 -124 -10 -16 -8 -23 -3 -49 36 -17 25 -31 48 -31 52 0 4 -12 23 -27
41 -25 29 -31 31 -55 22 -48 -18 -95 -3 -130 43 -17 22 -38 47 -47 54 -21 17
-106 14 -168 -6z m387 -292 c0 -5 -5 -12 -11 -16 -14 -8 -33 11 -25 25 7 11
36 4 36 -9z m-480 -30 c-20 -13 -33 -13 -25 0 3 6 14 10 23 10 15 0 15 -2 2
-10z m20 -20 c0 -5 -4 -10 -10 -10 -5 0 -10 5 -10 10 0 6 5 10 10 10 6 0 10
-4 10 -10z m140 -29 c0 -5 -7 -11 -15 -15 -9 -3 -15 0 -15 9 0 8 7 15 15 15 8
0 15 -4 15 -9z m-350 -31 c0 -5 -7 -10 -15 -10 -8 0 -15 5 -15 10 0 6 7 10 15
10 8 0 15 -4 15 -10z m-50 -10 c0 -5 -7 -10 -16 -10 -8 0 -12 5 -9 10 3 6 10
10 16 10 5 0 9 -4 9 -10z m1337 -392 c-3 -8 -6 -5 -6 6 -1 11 2 17 5 13 3 -3
4 -12 1 -19z m163 -59 c0 -5 -4 -9 -10 -9 -5 0 -10 7 -10 16 0 8 5 12 10 9 6
-3 10 -10 10 -16z m508 -81 c-6 -18 -28 -21 -28 -4 0 9 7 16 16 16 9 0 14 -5
12 -12z m-475 -13 c1 -5 -6 -11 -15 -13 -11 -2 -18 3 -18 13 0 17 30 18 33 0z
m155 -214 c-5 -24 -38 -27 -38 -3 0 10 3 21 6 25 11 11 35 -5 32 -22z m10
-139 c12 -16 17 -52 7 -52 -20 0 -105 53 -105 65 0 20 80 9 98 -13z m-1604
-27 c-4 -8 -8 -15 -10 -15 -2 0 -4 7 -4 15 0 8 4 15 10 15 5 0 7 -7 4 -15z"/>
<path d="M3350 815 c0 -3 86 -48 190 -100 105 -52 190 -93 190 -90 0 3 -85 48
-190 100 -104 52 -190 93 -190 90z"/>
<path d="M1810 788 c0 -10 -8 -25 -19 -35 -15 -15 -16 -22 -6 -46 9 -23 14
-26 23 -15 24 29 30 63 16 88 -10 19 -13 21 -14 8z m10 -58 c0 -5 -2 -10 -4
-10 -3 0 -8 5 -11 10 -3 6 -1 10 4 10 6 0 11 -4 11 -10z"/>
<path d="M1700 754 c-14 -10 -26 -18 -28 -20 -2 -1 2 -12 8 -24 l11 -21 18 20
c10 12 26 21 35 21 9 0 16 5 16 12 0 6 -3 8 -7 5 -3 -4 -11 0 -17 8 -10 14
-14 13 -36 -1z"/>
<path d="M2670 700 c-8 -5 -10 -10 -5 -10 6 0 17 5 25 10 8 5 11 10 5 10 -5 0
-17 -5 -25 -10z"/>
<path d="M2506 631 c-4 -5 3 -7 14 -4 23 6 26 13 6 13 -8 0 -17 -4 -20 -9z"/>
<path d="M2392 583 c-45 -20 -81 -38 -79 -40 4 -3 167 64 176 73 11 10 -20 0
-97 -33z"/>
<path d="M3860 555 c0 -2 23 -16 50 -30 28 -14 50 -23 50 -20 0 2 -22 16 -50
30 -27 14 -50 23 -50 20z"/>
<path d="M2223 543 c9 -2 25 -2 35 0 9 3 1 5 -18 5 -19 0 -27 -2 -17 -5z"/>
<path d="M3970 496 c0 -2 7 -7 16 -10 8 -3 12 -2 9 4 -6 10 -25 14 -25 6z"/>
<path d="M3974 394 c-18 -14 -18 -15 4 -4 12 6 22 13 22 15 0 8 -5 6 -26 -11z"/>
<path d="M1308 363 c-10 -2 -18 -9 -18 -14 0 -6 10 -5 23 2 37 20 36 23 -5 12z"/>
<path d="M560 340 c0 -5 -9 -10 -20 -10 -28 0 -25 -26 5 -46 23 -15 27 -15 59
5 47 29 52 47 14 55 -43 9 -58 8 -58 -4z"/>
<path d="M2140 274 c-6 -14 -10 -29 -10 -34 0 -5 -6 -15 -13 -22 -7 -7 -23
-51 -35 -98 -13 -47 -25 -93 -28 -102 -5 -15 1 -18 38 -18 41 0 94 19 58 20
-9 1 -6 5 7 10 16 6 24 23 32 62 6 29 17 82 25 118 l13 65 -30 13 c-41 17 -46
16 -57 -14z m-45 -234 c3 -6 -1 -7 -9 -4 -18 7 -21 14 -7 14 6 0 13 -4 16 -10z"/>
<path d="M380 200 c0 -5 5 -10 11 -10 5 0 7 5 4 10 -3 6 -8 10 -11 10 -2 0 -4
-4 -4 -10z"/>
<path d="M2250 40 c-14 -34 -9 -46 15 -37 16 7 22 67 6 67 -5 0 -14 -14 -21
-30z"/>
</g>
</svg>
