<?xml version="1.0" standalone="no"?>
<!DOCTYPE svg PUBLIC "-//W3C//DTD SVG 20010904//EN"
 "http://www.w3.org/TR/2001/REC-SVG-20010904/DTD/svg10.dtd">
<svg version="1.0" xmlns="http://www.w3.org/2000/svg"
 width="770.000000pt" height="513.000000pt" viewBox="0 0 770.000000 513.000000"
 preserveAspectRatio="xMidYMid meet">

<g transform="translate(0.000000,513.000000) scale(0.100000,-0.100000)"
fill="#000000" stroke="none">
<path d="M5140 5111 c0 -10 4 -31 9 -47 5 -16 26 -100 46 -186 35 -150 38
-158 61 -158 28 0 31 18 10 82 -7 24 -28 107 -47 185 -31 131 -36 143 -56 143
-16 0 -23 -6 -23 -19z"/>
<path d="M5430 5125 c0 -12 24 -55 32 -55 10 0 10 3 -2 34 -8 22 -30 37 -30
21z"/>
<path d="M5480 5106 c5 -14 3 -28 -6 -41 -8 -10 -14 -28 -14 -40 0 -21 -25
-89 -81 -217 -31 -71 -41 -120 -16 -83 7 11 37 81 67 155 29 74 64 148 77 163
23 29 31 53 13 42 -5 -3 -10 3 -10 14 0 11 8 21 18 24 9 2 0 4 -20 4 -34 1
-36 -1 -28 -21z"/>
<path d="M4480 4386 c-54 -14 -60 -18 -141 -80 -72 -55 -114 -112 -124 -171
-4 -22 -24 -67 -44 -100 -62 -100 -112 -209 -118 -253 -4 -29 -11 -42 -22 -43
-9 -1 -23 -2 -31 -3 -8 0 -17 -12 -21 -26 -7 -24 -7 -24 -8 -2 -1 15 -7 22
-20 22 -30 0 -34 16 -15 72 18 54 35 223 21 209 -4 -4 -15 -53 -22 -107 -8
-54 -19 -117 -24 -139 -34 -140 -42 -186 -39 -211 l3 -29 24 43 c14 23 31 42
38 42 7 0 13 8 13 18 0 9 5 24 10 32 9 13 14 11 34 -11 12 -14 29 -29 37 -32
8 -3 5 -6 -9 -6 -13 -1 -20 -5 -17 -11 4 -6 10 -8 15 -5 5 3 14 -4 20 -15 6
-11 17 -20 24 -20 33 0 21 -30 -30 -81 -51 -50 -54 -56 -54 -103 -1 -126 -1
-126 -28 -133 -27 -7 -187 3 -202 12 -19 12 -10 118 14 175 13 29 22 59 19 66
-2 7 1 15 7 19 9 6 9 9 0 15 -10 6 -6 14 13 32 22 21 25 30 20 66 -4 27 -13
46 -24 53 -11 5 -19 18 -19 29 0 10 -4 21 -9 24 -4 3 -11 29 -15 58 -3 29 -8
67 -10 83 -3 17 -8 81 -12 143 -5 76 -11 112 -19 112 -29 0 -73 -23 -84 -44
-15 -27 -10 -204 8 -292 11 -55 11 -66 -9 -125 -19 -55 -22 -85 -22 -219 1
-150 0 -156 -23 -182 -13 -16 -28 -28 -33 -28 -9 0 -27 46 -37 97 -4 18 -11
35 -16 38 -5 4 -9 18 -9 33 0 44 -57 81 -76 50 -14 -23 -13 -62 2 -79 13 -14
13 -30 5 -98 -6 -45 -15 -90 -21 -101 -5 -10 -10 -30 -10 -44 0 -14 -4 -26
-10 -26 -5 0 -12 -16 -16 -35 -3 -19 -12 -39 -20 -46 -8 -6 -14 -22 -14 -35 0
-15 -6 -24 -15 -24 -8 0 -15 -5 -15 -11 0 -5 5 -7 10 -4 6 3 13 -1 17 -11 7
-20 -37 -59 -48 -42 -4 6 -16 7 -29 3 -16 -5 -19 -10 -10 -15 17 -11 -4 -23
-55 -30 l-40 -6 45 -14 c25 -7 48 -14 53 -16 4 -1 10 -3 15 -4 4 -2 12 -4 17
-4 14 -2 14 -16 2 -46 -20 -50 -31 -70 -39 -70 -5 0 -4 9 2 20 14 26 4 25 -34
-4 -17 -13 -49 -35 -70 -50 -42 -28 -33 -35 15 -11 32 17 51 13 43 -10 -4 -8
-10 -13 -14 -10 -9 6 -20 -18 -21 -48 0 -21 -1 -21 -9 -2 -9 20 -9 20 -9 -1
-1 -11 -6 -25 -13 -32 -9 -9 -7 -12 9 -12 16 0 23 8 28 30 9 43 27 38 19 -5
l-6 -35 53 0 c111 0 334 -48 397 -85 27 -16 31 -16 54 -1 14 9 45 43 68 75 35
47 56 65 114 94 39 19 103 45 142 56 39 11 82 30 96 41 15 11 57 34 95 50 37
16 76 34 85 40 10 5 27 10 38 10 11 0 20 4 20 9 0 5 16 15 35 21 19 6 41 20
48 31 8 10 27 24 44 29 20 7 43 32 73 78 24 37 60 92 80 122 19 30 43 71 53
91 9 20 23 39 31 42 16 6 33 -30 38 -78 2 -18 9 -31 19 -33 14 -2 16 18 15
176 -1 139 -4 178 -13 175 -7 -3 -13 -1 -13 5 0 11 47 71 65 84 6 5 5 12 -3
20 -9 9 -12 9 -12 -2 0 -10 -3 -11 -11 -3 -18 18 -46 3 -56 -30 l-10 -32 -10
25 c-9 21 -11 17 -24 -44 -11 -57 -18 -72 -46 -93 -18 -14 -33 -33 -33 -43 0
-9 -11 -22 -25 -28 -14 -7 -28 -19 -31 -27 -12 -31 -34 -16 -34 24 0 22 -4 41
-9 43 -21 7 13 104 57 158 24 30 49 62 55 70 7 8 21 32 32 53 21 39 30 45 38
25 4 -10 6 -10 6 0 1 8 27 51 59 95 32 45 71 114 87 152 63 159 40 266 -83
386 -89 88 -163 108 -282 75z m-264 -863 c-7 -7 -26 7 -26 19 0 6 6 6 15 -2 9
-7 13 -15 11 -17z m-96 -42 c-5 -11 -10 -28 -10 -38 1 -17 1 -17 14 0 13 17
46 14 46 -4 0 -17 15 -9 25 13 11 24 55 56 55 40 0 -5 -20 -37 -45 -71 -25
-34 -45 -63 -45 -66 0 -13 20 -2 50 27 41 38 35 18 -18 -64 -38 -59 -81 -88
-131 -88 -44 0 -57 23 -38 68 8 20 18 46 22 57 5 16 8 17 16 5 9 -12 10 -11 5
4 -7 19 13 86 25 86 4 0 10 11 13 25 4 14 11 25 17 25 6 0 6 -6 -1 -19z m202
-61 c-4 -47 -44 -155 -67 -179 -8 -8 -20 -11 -32 -6 -12 5 -14 9 -5 12 6 3 12
13 12 24 0 10 9 33 20 51 14 24 18 42 14 66 -7 38 18 85 44 80 14 -3 16 -13
14 -48z m148 -105 c0 -18 -5 -25 -20 -25 -21 0 -24 8 -14 34 10 25 34 19 34
-9z m-996 -139 c3 -13 9 -32 12 -41 6 -15 4 -16 -14 -6 -15 8 -22 21 -22 41 0
36 15 40 24 6z m-16 -72 c14 -29 13 -31 -58 -140 -37 -57 -49 -69 -53 -54 -3
10 -2 20 2 22 18 8 61 78 61 99 0 33 19 99 29 99 4 0 13 -12 19 -26z"/>
<path d="M5220 4300 c0 -5 9 -10 21 -10 11 0 17 5 14 10 -3 6 -13 10 -21 10
-8 0 -14 -4 -14 -10z"/>
<path d="M5580 4286 c0 -22 17 -28 24 -10 9 22 8 24 -9 24 -8 0 -15 -6 -15
-14z"/>
<path d="M4166 4159 c-13 -42 -13 -57 -1 -53 17 7 27 46 15 58 -6 6 -11 4 -14
-5z"/>
<path d="M4091 4069 c-6 -18 -11 -44 -11 -58 1 -24 1 -25 12 -6 15 25 28 95
18 95 -5 0 -13 -14 -19 -31z"/>
<path d="M790 3720 c8 -5 31 -10 50 -10 19 0 42 5 50 10 11 7 -4 10 -50 10
-46 0 -61 -3 -50 -10z"/>
<path d="M2 3590 c1 -38 5 -70 8 -70 3 0 15 7 27 15 12 8 24 12 26 8 3 -5 5
-68 6 -141 l1 -134 -33 4 -32 3 -3 -603 -2 -604 187 6 c104 4 234 9 291 12
l102 6 -6 581 c-3 320 -7 583 -8 584 0 0 -104 3 -229 5 -188 2 -229 6 -237 18
-5 8 -8 79 -6 158 2 139 3 143 29 169 l26 27 248 5 c204 5 231 7 153 12 -52 4
-198 7 -323 8 l-228 1 3 -70z"/>
<path d="M911 2879 c-1 -558 2 -776 10 -785 6 -8 9 -27 7 -44 -3 -23 -1 -30
11 -30 12 0 16 10 14 42 0 24 -2 338 -3 698 -3 699 -8 881 -26 887 -8 3 -12
-202 -13 -768z"/>
<path d="M4675 3620 c-4 -17 -5 -34 -2 -36 3 -3 8 9 12 26 4 17 5 34 2 36 -3
3 -8 -9 -12 -26z"/>
<path d="M5169 2949 c-1 -8 0 -22 1 -33 1 -10 -4 -23 -12 -27 -9 -6 -9 -9 -1
-9 7 0 17 9 23 20 10 19 19 20 88 17 98 -6 162 -23 162 -43 0 -12 5 -14 18 -8
9 4 27 7 40 7 36 -1 24 32 -13 34 -29 1 -90 15 -150 34 -16 5 -58 12 -92 16
-50 5 -63 3 -64 -8z"/>
<path d="M3080 2895 c-24 -14 -23 -14 30 -14 55 0 121 17 74 18 -12 1 -34 3
-50 6 -16 3 -40 -1 -54 -10z"/>
<path d="M2885 2879 c-10 -15 1 -23 20 -15 9 3 13 10 10 16 -8 13 -22 13 -30
-1z"/>
<path d="M5085 2817 c-38 -22 -170 -111 -197 -133 -36 -29 -243 -129 -308
-148 -37 -11 -57 -13 -65 -6 -9 8 -14 5 -18 -9 -2 -11 -17 -22 -34 -25 -17 -4
-60 -25 -98 -47 -37 -22 -69 -38 -69 -37 -1 2 -10 27 -20 57 -19 54 -66 135
-74 127 -2 -3 4 -18 14 -35 l18 -31 -43 -42 c-24 -24 -51 -59 -62 -78 -26 -48
-45 -69 -109 -117 -30 -22 -66 -50 -79 -62 -17 -15 -27 -18 -32 -10 -4 7 -15
9 -25 5 -12 -5 -28 3 -52 26 -29 28 -33 30 -28 11 5 -16 0 -26 -24 -43 -17
-12 -36 -19 -43 -17 -7 3 -5 6 6 6 21 1 23 21 2 21 -18 0 -16 20 5 40 28 27
90 117 90 131 0 17 -93 -74 -131 -128 -18 -26 -38 -43 -49 -43 -15 0 -20 -7
-20 -27 0 -102 -129 -344 -250 -472 -27 -29 -50 -55 -50 -57 0 -2 59 -4 130
-4 123 0 130 -1 130 -20 0 -19 -7 -20 -202 -22 -112 -2 -225 -3 -253 -3 l-50
0 2 -60 2 -60 -10 60 c-5 33 -11 66 -14 73 -2 6 1 12 7 12 7 0 6 5 -2 15 -7 9
-15 56 -18 110 -4 82 -2 98 13 115 10 11 14 20 9 21 -21 2 -90 -2 -106 -7 -32
-9 -40 -71 -37 -272 3 -134 1 -193 -7 -196 -8 -3 -10 24 -6 91 4 74 2 94 -7
88 -9 -5 -12 -44 -10 -142 4 -157 8 -149 -104 -164 -95 -13 -228 -49 -233 -63
-8 -21 44 -262 76 -352 17 -49 34 -101 37 -117 3 -15 9 -27 13 -27 4 0 15 -16
24 -35 13 -27 24 -36 52 -41 20 -4 46 -2 60 5 14 6 36 11 49 11 13 0 27 4 30
10 16 26 21 3 17 -79 l-4 -88 34 -36 33 -36 240 -1 240 -1 6 73 c7 90 33 150
90 207 142 140 368 127 487 -29 l34 -44 -23 -7 c-13 -4 -44 -12 -69 -19 -54
-14 -126 -85 -164 -162 -22 -44 -26 -66 -26 -139 0 -78 3 -93 33 -153 21 -42
29 -66 21 -66 -7 0 -15 -6 -17 -12 -4 -10 -6 -10 -6 0 -1 6 -11 12 -24 12 -24
0 -56 19 -98 57 -26 24 -29 25 -153 17 -113 -6 -126 -9 -126 -25 0 -41 123
-66 184 -37 21 9 29 8 44 -5 10 -10 26 -17 35 -17 9 0 17 -5 17 -11 0 -7 26
-9 75 -7 62 2 73 1 58 -9 -9 -7 -23 -13 -30 -13 -7 0 -13 -4 -13 -10 0 -5 13
-10 29 -10 16 0 31 -6 34 -12 3 -10 44 -13 161 -13 146 0 158 1 174 21 9 11
34 31 54 45 21 13 38 27 38 32 0 11 -15 8 -28 -5 -10 -10 -15 -10 -22 2 -8 13
-10 12 -10 -2 0 -10 -7 -18 -16 -18 -8 0 -12 5 -9 10 4 7 -3 8 -22 4 -15 -4
-35 -7 -44 -7 -30 2 -87 49 -120 98 -32 48 -34 55 -36 150 -2 91 0 103 22 137
14 21 25 42 25 48 0 5 4 10 8 10 5 0 19 9 32 20 13 11 18 20 12 20 -6 0 -14
-5 -17 -10 -4 -6 -16 -8 -27 -4 -14 4 -18 2 -14 -5 5 -7 1 -9 -8 -5 -10 4 -16
1 -16 -7 0 -7 -9 -22 -19 -33 -11 -12 -27 -34 -35 -51 -11 -20 -16 -24 -16
-12 0 40 84 141 128 153 12 3 22 10 22 14 0 22 -68 -15 -110 -60 -53 -57 -67
-63 -45 -20 9 17 20 30 25 30 6 0 9 5 8 12 -6 25 136 72 187 62 80 -17 171
-85 211 -159 l19 -35 118 0 c90 0 118 -3 115 -12 -3 -7 -27 -16 -54 -19 -46
-6 -47 -6 -10 -7 31 -2 36 -5 27 -16 -6 -7 -30 -17 -54 -20 -131 -22 -119 -15
-123 -73 -2 -32 0 -53 6 -53 5 0 10 11 10 25 0 20 5 25 24 25 13 0 33 3 43 7
17 6 17 5 -1 -15 -11 -12 -16 -30 -13 -41 3 -15 -1 -21 -17 -24 -12 -3 -6 -5
15 -6 21 0 39 -7 42 -15 11 -28 194 -29 323 -1 28 6 32 4 37 -22 3 -15 8 -35
12 -44 5 -12 -1 -18 -22 -24 l-28 -7 25 -10 c14 -5 75 -11 135 -12 61 -2 131
-8 157 -15 30 -8 96 -11 176 -9 l128 3 36 36 c70 71 65 204 -10 243 -27 14
-58 19 -97 17 -25 -1 -87 -60 -97 -92 -5 -16 -6 -11 -2 13 4 33 3 36 -18 33
-13 -2 -39 -9 -58 -15 -34 -11 -71 -20 -97 -22 -7 -1 -13 -4 -13 -8 0 -3 -9
-6 -20 -7 -13 -1 -20 5 -20 15 -1 10 -7 5 -15 -13 -7 -16 -14 -26 -14 -22 -1
4 -9 3 -19 -2 -14 -8 -18 -5 -19 10 -3 40 -24 124 -34 139 -8 12 -9 11 -5 -5
16 -64 18 -75 7 -75 -6 0 -11 9 -11 20 0 51 -39 87 -65 61 -9 -8 -99 -25 -200
-37 -22 -3 -41 -10 -43 -15 -6 -14 -32 -11 -32 4 0 24 36 58 54 51 19 -7 203
15 226 27 21 12 -35 11 -80 0 -50 -13 -150 -21 -150 -12 0 4 9 17 21 29 l20
22 -23 9 c-22 9 -21 10 8 10 38 1 49 14 59 66 11 62 26 73 44 34 18 -38 38
-48 47 -24 4 9 -6 36 -25 66 -23 38 -33 67 -37 118 -9 91 1 107 68 116 69 8
118 24 118 37 0 9 -20 8 -122 -5 -31 -4 -35 7 -17 46 8 18 24 27 61 35 67 16
81 15 94 -6 11 -17 39 -18 424 -20 419 -2 466 2 440 33 -9 11 -9 26 0 65 17
70 32 63 28 -12 -2 -51 0 -62 11 -60 62 14 125 23 176 28 65 5 79 12 70 36 -4
9 -15 13 -29 11 -34 -7 -41 14 -14 42 15 16 31 22 48 20 14 -2 46 -7 71 -10
39 -5 48 -10 51 -30 3 -13 0 -26 -6 -29 -24 -10 54 -5 149 9 63 10 131 13 185
10 176 -12 532 -22 562 -16 l31 6 -29 14 c-25 11 -26 14 -11 22 13 8 14 13 5
28 -10 17 -24 18 -172 13 -109 -3 -179 -1 -216 8 -30 7 -94 14 -142 15 -48 2
-95 8 -105 13 -21 12 -222 36 -330 41 -14 1 -23 7 -23 17 0 8 4 13 9 10 13 -8
20 28 9 48 -10 18 0 86 12 86 5 0 6 9 3 19 -3 10 3 30 12 44 11 17 13 27 6 32
-7 4 -8 12 -2 24 11 21 3 36 -24 45 -37 12 -65 40 -56 55 7 11 13 12 23 4 14
-12 68 -6 68 8 0 5 -3 9 -8 9 -4 0 -12 10 -17 23 -6 12 -21 24 -35 26 -30 4
-45 24 -24 31 12 5 8 15 -20 52 -20 26 -36 53 -36 60 0 10 2 10 9 -1 5 -7 11
-9 14 -4 4 6 11 131 17 279 5 148 13 331 17 408 6 134 6 138 -13 132 -11 -3
-230 -8 -487 -10 l-467 -4 0 73 c0 49 4 75 13 78 6 3 2 6 -10 6 -17 1 -24 9
-29 36 -7 37 -16 41 -49 22z m25 -654 c0 -19 -29 -28 -43 -14 -8 8 -8 11 2 11
7 0 10 4 7 8 -2 4 4 8 15 8 10 0 19 -6 19 -13z m83 0 c-7 -2 -21 -2 -30 0 -10
3 -4 5 12 5 17 0 24 -2 18 -5z m755 -38 c4 -28 3 -28 -21 -12 -24 15 -26 15
-29 -1 -2 -9 1 -41 8 -69 8 -39 8 -53 0 -54 -7 0 -6 -3 2 -6 13 -5 17 -34 5
-32 -20 3 -30 -3 -31 -18 -1 -25 40 -136 54 -148 7 -5 18 -29 24 -52 6 -24 15
-43 20 -43 6 0 10 -6 10 -12 0 -17 44 -58 61 -58 12 0 12 -2 1 -9 -11 -7 -10
-16 8 -50 l21 -42 -20 -35 c-13 -22 -16 -34 -8 -34 16 -1 -23 -30 -40 -30 -7
0 -13 11 -13 24 0 16 -13 35 -37 55 -45 37 -66 39 -81 9 l-11 -23 2 25 c0 14
-6 48 -15 75 -15 44 -39 307 -38 418 0 23 -5 40 -14 43 -10 4 -6 13 15 34 16
16 29 38 29 50 0 14 5 20 13 17 6 -2 21 -1 32 3 34 12 50 5 53 -25z m-883 -55
c3 -6 -1 -13 -10 -16 -14 -6 -14 -9 -3 -16 10 -8 10 -9 -2 -5 -21 5 -26 47 -6
47 8 0 18 -5 21 -10z m655 -5 c-10 -13 -9 -15 11 -16 22 -1 21 -2 -6 -11 -35
-13 -47 -28 -35 -44 6 -6 7 -14 3 -18 -4 -3 2 -13 13 -21 10 -8 14 -15 7 -15
-8 0 -8 -7 0 -30 10 -25 8 -36 -8 -66 -15 -28 -17 -39 -7 -54 7 -12 8 -21 2
-25 -6 -3 -10 -14 -10 -24 0 -10 -9 -21 -20 -24 -26 -7 -80 46 -80 78 0 26
-21 46 -28 27 -2 -7 -10 -12 -19 -12 -10 0 -12 6 -8 20 4 13 2 20 -7 20 -7 0
2 8 20 17 39 19 37 26 -5 14 -27 -8 -30 -7 -26 10 5 16 0 19 -30 19 -38 0 -58
16 -33 26 35 13 0 24 -80 24 -55 0 -84 4 -84 11 0 6 9 9 19 6 19 -5 126 14
279 49 40 9 83 25 95 35 28 23 56 26 37 4z m-1230 -165 c-6 -73 -9 -135 -6
-137 2 -2 13 2 25 9 18 11 21 23 21 72 0 46 3 57 12 48 9 -9 14 -7 24 6 7 9 0
-30 -15 -87 -18 -66 -34 -109 -47 -119 -18 -13 -17 -14 11 -7 34 8 45 20 45
53 0 29 14 28 28 -3 27 -59 8 -107 -49 -127 -34 -12 -48 -40 -156 -303 -53
-130 -53 -130 -85 -130 -24 1 -32 5 -30 15 3 18 73 195 115 295 44 106 49 133
25 146 -16 9 -18 17 -13 50 l7 39 -36 0 c-26 0 -36 -4 -36 -16 0 -28 -33 -10
-47 26 -12 33 -13 34 -8 5 5 -32 8 -84 6 -100 -1 -12 -73 -18 -118 -10 -31 5
-32 7 -37 68 -4 45 -13 272 -11 278 0 0 54 4 120 9 83 6 142 16 190 33 39 13
71 23 73 22 1 -1 -2 -62 -8 -135z m766 72 c-16 -2 -32 0 -37 5 -5 5 7 7 29 4
34 -5 35 -6 8 -9z m674 -58 c0 -8 -4 -12 -10 -9 -5 3 -10 10 -10 16 0 5 5 9
10 9 6 0 10 -7 10 -16z m66 -32 c-12 -11 -18 7 -10 30 l8 23 4 -23 c2 -13 1
-26 -2 -30z m-1236 3 c0 -3 -4 -13 -10 -23 -32 -58 -63 -246 -55 -334 4 -45 3
-68 -4 -68 -7 0 -11 39 -12 108 0 69 -3 100 -9 87 -13 -31 -12 0 5 94 22 117
32 141 61 141 13 0 24 -2 24 -5z m1300 -45 c0 -5 -4 -10 -10 -10 -5 0 -10 5
-10 10 0 6 5 10 10 10 6 0 10 -4 10 -10z m0 -150 c0 -5 -6 -10 -14 -10 -8 0
-18 5 -21 10 -3 6 3 10 14 10 12 0 21 -4 21 -10z m-1728 -56 c11 -64 9 -114
-4 -115 -10 0 -10 -2 0 -6 21 -8 13 -20 -14 -20 -22 0 -25 3 -21 23 4 23 2 24
-47 24 -29 0 -58 6 -64 13 -7 6 -17 13 -22 13 -6 1 -14 2 -20 3 -5 0 -10 8
-10 16 0 8 -8 15 -17 16 -12 0 -13 2 -5 6 7 3 20 -1 29 -9 9 -7 49 -15 90 -18
l73 -5 0 53 c0 64 21 68 32 6z m48 35 c0 -10 -27 -19 -34 -12 -12 12 -5 22 14
20 11 -1 20 -4 20 -8z m390 -39 c2 27 4 30 7 11 6 -31 -5 -73 -17 -66 -6 3 -9
27 -9 53 l2 47 7 -40 7 -40 3 35z m-856 -103 c87 -32 103 -47 48 -44 -23 0
-36 4 -30 8 22 14 -95 39 -176 39 -73 -1 -189 -20 -204 -34 -3 -3 75 -6 173
-6 98 0 176 -2 174 -4 -2 -2 -164 -6 -359 -8 -195 -3 -294 -2 -220 1 106 5
142 10 170 25 112 62 291 71 424 23z m846 -9 c0 -30 -1 -31 -16 -16 -9 9 -14
24 -11 32 11 27 27 17 27 -16z m-1670 -38 c-6 -4 -10 -13 -8 -20 2 -8 -5 -16
-14 -18 -13 -2 -18 3 -18 17 0 15 -5 19 -17 15 -15 -5 -15 -4 -4 4 8 6 28 10
44 10 15 -1 23 -4 17 -8z m1597 -77 c-3 -10 -5 -2 -5 17 0 19 2 27 5 18 2 -10
2 -26 0 -35z m1180 25 c-3 -8 -6 -5 -6 6 -1 11 2 17 5 13 3 -3 4 -12 1 -19z
m-1107 -13 c0 -8 -4 -15 -10 -15 -5 0 -10 7 -10 15 0 8 5 15 10 15 6 0 10 -7
10 -15z m710 5 c0 -5 -5 -10 -11 -10 -5 0 -7 5 -4 10 3 6 8 10 11 10 2 0 4 -4
4 -10z m90 -14 c0 -14 5 -28 12 -32 6 -4 8 -3 5 3 -10 17 28 40 75 45 56 6 78
-4 62 -29 -9 -14 -23 -18 -70 -16 -33 1 -49 -1 -36 -4 25 -5 27 -12 9 -37 -20
-27 -94 -14 -100 17 -3 15 -5 12 -6 -10 -1 -38 -21 -55 -21 -19 0 14 -4 26
-10 26 -5 0 -10 -9 -10 -20 0 -13 -7 -20 -20 -20 -17 0 -19 -4 -14 -26 5 -19
4 -25 -5 -20 -6 4 -11 16 -11 27 0 10 -4 19 -10 19 -13 0 -13 77 0 85 7 4 8
-8 4 -34 -8 -50 7 -54 24 -7 10 27 17 33 32 29 15 -4 20 0 20 16 0 11 5 21 10
21 6 0 10 -5 10 -12 0 -8 6 -6 17 5 24 23 33 21 33 -7z m309 -38 c-1 -18 -5
-44 -9 -58 -6 -19 -8 -11 -9 33 -1 32 3 57 9 57 6 0 10 -15 9 -32z m-495 -5
c-7 -31 -12 -38 -18 -32 -7 7 6 59 15 59 5 0 6 -12 3 -27z m-544 -10 c25 -3
52 -11 60 -18 8 -7 34 -22 58 -34 23 -12 42 -25 42 -29 0 -4 -12 -15 -26 -26
-26 -18 -27 -18 -73 6 -29 16 -46 32 -46 44 0 12 -18 29 -50 47 -27 16 -41 26
-30 22 10 -3 40 -9 65 -12z m-150 -66 c-7 -17 -9 -10 -9 28 1 43 2 46 9 22 5
-16 5 -38 0 -50z m600 53 c0 -5 -5 -10 -11 -10 -5 0 -7 5 -4 10 3 6 8 10 11
10 2 0 4 -4 4 -10z m40 -15 c0 -14 -4 -25 -9 -25 -4 0 -6 11 -3 25 2 14 6 25
8 25 2 0 4 -11 4 -25z m-1610 5 c0 -5 -8 -10 -17 -10 -15 0 -16 2 -3 10 19 12
20 12 20 0z m-243 -6 c-3 -3 -12 -4 -19 -1 -8 3 -5 6 6 6 11 1 17 -2 13 -5z
m305 -16 c2 -15 9 -22 21 -22 26 2 22 -5 -30 -54 -49 -47 -65 -44 -39 7 10 18
13 41 10 60 -6 27 -4 31 14 31 14 0 22 -8 24 -22z m-62 -41 c0 -4 -7 -21 -15
-38 -9 -16 -13 -34 -10 -38 3 -5 -4 -7 -15 -4 -22 6 -25 16 -10 43 6 10 11 30
12 43 2 21 5 23 20 13 10 -6 18 -14 18 -19z m-197 -70 c-3 -5 -16 6 -29 24
-13 18 -30 36 -36 41 -9 5 -8 8 5 8 9 0 17 6 17 12 0 7 11 -7 24 -32 13 -25
22 -49 19 -53z m-456 -6 c-6 -35 -6 -60 2 -82 16 -46 5 -49 -13 -4 -10 23 -14
56 -12 84 5 56 3 51 20 51 10 0 11 -10 3 -49z m1956 27 c10 -40 -26 -163 -51
-173 -25 -9 -62 6 -62 26 0 31 38 120 61 145 28 30 45 30 52 2z m-1568 3 c3
-5 -4 -39 -16 -75 -17 -51 -26 -66 -41 -66 -14 0 -17 4 -10 18 5 9 14 43 21
75 12 53 30 73 46 48z m2334 -202 c1 -18 -5 -28 -19 -32 -22 -6 -293 2 -299 9
-3 2 1 10 7 16 9 9 18 9 37 0 15 -7 24 -8 20 -2 -6 10 -1 12 48 13 40 1 33 15
-10 20 -28 3 -22 4 20 5 34 1 56 -2 52 -7 -3 -5 -1 -12 5 -16 6 -4 8 -11 5
-16 -8 -12 38 -12 51 0 5 5 22 11 38 13 31 3 50 28 21 28 -13 0 -14 2 -3 14
11 12 14 11 20 -3 4 -9 7 -28 7 -42z m-26 14 c-7 -2 -19 -2 -25 0 -7 3 -2 5
12 5 14 0 19 -2 13 -5z m-316 -18 c8 -22 2 -25 -41 -18 -37 6 -38 17 -1 26 33
8 35 8 42 -8z m-182 -5 c3 -5 -1 -10 -9 -10 -9 0 -16 5 -16 10 0 6 4 10 9 10
6 0 13 -4 16 -10z m-1275 -635 c-7 -45 -7 -46 -9 -13 -1 32 8 74 14 66 1 -2
-1 -25 -5 -53z m580 -15 c11 -7 8 -10 -15 -9 -16 0 -39 4 -50 9 -16 7 -14 9
15 9 19 0 42 -4 50 -9z m273 -27 c-7 -2 -13 -11 -13 -18 0 -13 -21 -25 -43
-25 -7 0 -3 7 7 15 11 8 16 15 10 16 -11 1 27 18 41 18 6 -1 4 -3 -2 -6z
m-846 -85 c-3 -7 -5 -2 -5 12 0 14 2 19 5 13 2 -7 2 -19 0 -25z m970 -20 c-3
-8 -6 -5 -6 6 -1 11 2 17 5 13 3 -3 4 -12 1 -19z m353 -68 c6 -11 8 -20 6 -20
-3 0 -10 9 -16 20 -6 11 -8 20 -6 20 3 0 10 -9 16 -20z m83 -57 c-7 -2 -19 -2
-25 0 -7 3 -2 5 12 5 14 0 19 -2 13 -5z"/>
<path d="M5666 1921 c-4 -7 -5 -15 -2 -18 9 -9 19 4 14 18 -4 11 -6 11 -12 0z"/>
<path d="M5664 1819 c-3 -6 -1 -16 5 -22 8 -8 11 -5 11 11 0 24 -5 28 -16 11z"/>
<path d="M3401 1134 c0 -11 3 -14 6 -6 3 7 2 16 -1 19 -3 4 -6 -2 -5 -13z"/>
<path d="M3225 2800 c4 -6 11 -8 16 -5 14 9 11 15 -7 15 -8 0 -12 -5 -9 -10z"/>
<path d="M5538 2793 c12 -2 30 -2 40 0 9 3 -1 5 -23 4 -22 0 -30 -2 -17 -4z"/>
<path d="M5655 2791 c-3 -6 -5 -11 -3 -12 27 -6 38 -5 35 4 -5 15 -24 20 -32
8z"/>
<path d="M5261 2786 c11 -9 69 -15 64 -6 -3 6 -20 10 -37 10 -17 0 -29 -2 -27
-4z"/>
<path d="M2855 2727 c-4 -31 -5 -62 -3 -69 3 -7 8 16 12 51 4 35 5 65 2 68 -2
3 -7 -20 -11 -50z"/>
<path d="M5570 2770 c0 -5 14 -10 30 -10 17 0 30 5 30 10 0 6 -13 10 -30 10
-16 0 -30 -4 -30 -10z"/>
<path d="M5278 2753 c6 -2 18 -2 25 0 6 3 1 5 -13 5 -14 0 -19 -2 -12 -5z"/>
<path d="M3715 2430 c-10 -11 -26 -20 -37 -20 -11 0 -18 -7 -18 -20 0 -11 -7
-23 -15 -26 -10 -4 -12 -10 -6 -18 5 -6 10 -20 12 -30 3 -16 6 -14 18 10 8 16
25 43 36 59 21 29 38 65 31 65 -1 0 -11 -9 -21 -20z"/>
<path d="M3210 2334 c-168 -7 -429 -11 -580 -9 l-275 4 180 -10 c186 -10 919
4 1020 20 l50 8 -45 0 c-25 0 -182 -6 -350 -13z"/>
<path d="M3955 2300 c-3 -5 -2 -10 4 -10 5 0 13 5 16 10 3 6 2 10 -4 10 -5 0
-13 -4 -16 -10z"/>
<path d="M2030 2248 c0 -19 2 -20 10 -8 13 19 13 30 0 30 -5 0 -10 -10 -10
-22z"/>
<path d="M888 2023 c7 -3 16 -2 19 1 4 3 -2 6 -13 5 -11 0 -14 -3 -6 -6z"/>
<path d="M858 2003 c12 -2 30 -2 40 0 9 3 -1 5 -23 4 -22 0 -30 -2 -17 -4z"/>
<path d="M648 1993 c7 -3 16 -2 19 1 4 3 -2 6 -13 5 -11 0 -14 -3 -6 -6z"/>
<path d="M707 1988 c15 -7 33 -7 60 0 38 10 37 10 -22 10 -49 1 -56 -1 -38
-10z"/>
<path d="M910 1668 c0 -382 -10 -841 -19 -849 -3 -3 -107 13 -231 37 -124 23
-281 53 -350 65 -69 12 -133 25 -143 28 -17 6 -19 26 -22 256 -3 138 -5 341
-5 453 0 111 -3 201 -7 200 -5 -2 -9 2 -9 7 -1 6 2 9 7 7 5 -1 9 10 8 25 0 24
-2 25 -8 9 -7 -18 -8 -18 -14 -3 -9 23 -34 22 -42 -2 -3 -10 -4 -131 -3 -269
1 -138 0 -253 -2 -256 -3 -2 -2 -60 1 -128 3 -67 3 -127 0 -133 -7 -12 -8 -18
-10 -117 -1 -68 -3 -77 -22 -83 -12 -4 -17 -11 -13 -15 5 -4 139 -33 299 -64
160 -31 329 -65 377 -76 112 -26 225 -35 259 -22 l27 11 1 359 c1 198 -1 371
-4 385 -4 14 -14 28 -23 30 -12 3 -11 5 5 6 21 1 21 5 20 113 0 108 -1 110
-14 72 -8 -21 -12 -57 -10 -79 2 -22 1 -51 -3 -65 -4 -14 -8 67 -8 179 0 203
-2 220 -34 221 -5 0 -8 -136 -8 -302z"/>
<path d="M3111 1871 c-6 -10 -12 -56 -13 -102 l-3 -84 58 -3 58 -3 -6 48 c-19
134 -63 202 -94 144z"/>
<path d="M2235 1811 c-16 -10 -40 -29 -51 -42 -37 -42 -94 -128 -94 -143 0 -8
-4 -18 -10 -21 -5 -3 -10 -16 -9 -28 0 -12 -5 -85 -11 -162 -15 -179 -24 -527
-15 -571 4 -26 11 -34 27 -34 14 0 18 5 14 15 -7 19 -5 19 138 -9 163 -32 236
-44 331 -51 44 -3 90 -8 103 -11 12 -2 22 0 22 5 0 4 -31 11 -69 15 -72 7
-212 32 -371 65 -158 33 -165 37 -140 89 19 39 65 217 95 365 l18 87 -41 36
c-62 53 -69 120 -19 181 13 15 27 40 30 54 4 15 24 38 48 54 52 37 74 77 57
105 -16 24 -16 24 -53 1z"/>
<path d="M6464 1259 c-3 -6 -1 -16 5 -22 8 -8 11 -5 11 11 0 24 -5 28 -16 11z"/>
<path d="M6255 1241 c-7 -12 12 -24 25 -16 11 7 4 25 -10 25 -5 0 -11 -4 -15
-9z"/>
<path d="M7266 1127 c3 -10 9 -15 12 -12 3 3 0 11 -7 18 -10 9 -11 8 -5 -6z"/>
<path d="M1460 1020 c-72 -7 -100 -18 -80 -30 16 -10 242 0 255 11 5 5 18 9
30 9 16 0 17 2 5 10 -17 11 -109 11 -210 0z"/>
<path d="M7630 1000 c-11 -7 -7 -10 18 -10 17 0 32 5 32 10 0 13 -30 13 -50 0z"/>
<path d="M1122 987 c-9 -10 -3 -13 26 -15 35 -2 36 -1 18 13 -24 18 -31 19
-44 2z"/>
<path d="M1225 989 c-14 -5 -16 -8 -5 -10 35 -5 68 -4 64 2 -7 12 -39 16 -59
8z"/>
<path d="M725 961 c-6 -11 9 -23 19 -14 9 9 7 23 -3 23 -6 0 -12 -4 -16 -9z"/>
<path d="M565 650 c-3 -6 1 -7 9 -4 18 7 21 14 7 14 -6 0 -13 -4 -16 -10z"/>
<path d="M895 640 c-3 -5 3 -10 15 -10 12 0 18 5 15 10 -3 6 -10 10 -15 10 -5
0 -12 -4 -15 -10z"/>
<path d="M1197 615 c-4 -9 -3 -13 3 -10 6 3 10 2 10 -4 0 -6 7 -8 15 -5 8 4
15 10 15 16 0 5 -5 6 -11 2 -6 -3 -15 -1 -19 6 -5 8 -9 7 -13 -5z"/>
<path d="M1325 610 c-3 -5 1 -10 9 -10 8 0 18 5 21 10 3 6 -1 10 -9 10 -8 0
-18 -4 -21 -10z"/>
<path d="M4140 610 c-12 -8 -9 -10 13 -10 16 0 26 4 22 10 -8 12 -16 12 -35 0z"/>
<path d="M1368 593 c7 -3 16 -2 19 1 4 3 -2 6 -13 5 -11 0 -14 -3 -6 -6z"/>
<path d="M6000 485 c0 -8 9 -15 19 -15 26 0 35 16 15 24 -25 10 -34 7 -34 -9z"/>
<path d="M5970 479 c0 -5 5 -7 10 -4 6 3 10 8 10 11 0 2 -4 4 -10 4 -5 0 -10
-5 -10 -11z"/>
<path d="M5233 461 c-72 -19 -85 -28 -43 -28 17 0 41 -5 54 -12 31 -17 80 4
84 37 4 27 -7 27 -95 3z"/>
<path d="M2218 453 c6 -2 18 -2 25 0 6 3 1 5 -13 5 -14 0 -19 -2 -12 -5z"/>
<path d="M4853 453 c9 -2 25 -2 35 0 9 3 1 5 -18 5 -19 0 -27 -2 -17 -5z"/>
<path d="M4798 443 c7 -3 16 -2 19 1 4 3 -2 6 -13 5 -11 0 -14 -3 -6 -6z"/>
<path d="M5555 439 c-27 -5 -65 -12 -83 -15 l-34 -5 39 -20 c37 -19 40 -20
116 -3 61 14 77 21 77 36 0 20 -29 22 -115 7z"/>
<path d="M5930 427 c0 -8 -10 -27 -22 -43 l-22 -29 23 20 c30 26 44 52 31 60
-5 3 -10 0 -10 -8z"/>
<path d="M4448 413 c6 -2 18 -2 25 0 6 3 1 5 -13 5 -14 0 -19 -2 -12 -5z"/>
<path d="M4363 350 c0 -43 3 -56 7 -39 4 14 4 43 0 65 -6 34 -7 30 -7 -26z"/>
<path d="M5240 340 c0 -5 7 -7 15 -4 8 4 15 8 15 10 0 2 -7 4 -15 4 -8 0 -15
-4 -15 -10z"/>
<path d="M5540 335 c0 -8 11 -22 24 -30 13 -9 26 -28 29 -43 3 -15 9 -36 13
-46 6 -15 4 -17 -6 -11 -10 6 -12 4 -7 -9 4 -10 7 -21 7 -25 0 -12 69 -41 99
-41 28 0 41 -15 41 -46 0 -9 -10 -14 -27 -14 -52 0 -8 -19 75 -32 71 -11 80
-14 66 -25 -15 -11 9 -13 136 -13 84 0 150 3 147 6 -3 4 4 25 18 48 32 56 40
105 22 147 l-14 34 3 -60 c3 -59 3 -60 -5 -14 -15 80 -49 120 -122 144 l-44
15 45 -5 c41 -4 42 -3 16 7 -30 11 -106 -6 -106 -24 0 -4 -5 -8 -10 -8 -6 0
-22 -12 -37 -26 -14 -14 -31 -23 -39 -20 -8 3 -14 2 -14 -2 0 -11 -83 -2 -98
11 -8 6 -11 21 -7 37 4 20 2 29 -9 33 -9 4 -16 2 -16 -4 0 -6 -9 -8 -20 -4
-20 6 -28 -9 -10 -20 6 -3 10 -14 10 -23 0 -13 -2 -14 -9 -4 -4 7 -12 12 -17
11 -23 -4 -54 15 -54 32 0 12 -7 19 -19 19 -11 0 -23 5 -26 10 -9 15 -35 12
-35 -5z m140 -79 c0 -3 -4 -8 -10 -11 -5 -3 -10 -1 -10 4 0 6 5 11 10 11 6 0
10 -2 10 -4z"/>
<path d="M6120 275 c18 -19 35 -33 38 -31 6 6 -50 66 -62 66 -5 0 5 -16 24
-35z"/>
<path d="M6260 191 c0 -6 5 -13 10 -16 6 -3 10 1 10 9 0 9 -4 16 -10 16 -5 0
-10 -4 -10 -9z"/>
</g>
</svg>
